<svg xmlns="http://www.w3.org/2000/svg" width="55.795" height="59.84" viewBox="0 0 55.795 59.84">
  <g id="Grupo_15" data-name="Grupo 15" transform="translate(-39 29)">
    <path id="_73521712" d="M45.578,48.732l1.457.5.566.171.6.188.291.1.308.1.291.137.274.137.257.154.257.171.1.086.1.1.1.1.086.12.086.12.069.12.068.137.051.137.034.137.034.171.017.154v.171l5.16,2.725-4.1,1.183,1.663,3.6L43.144,55.572l-.086-.086-.1-.086-.086-.12-.086-.12-.188-.24-.171-.274-.189-.257-.171-.24-.086-.086-.086-.086-.086-.068-.086-.051-.377-.188-.36-.137-.36-.137-.343-.12-.343-.12-.36-.086L39.219,53l-.377-.068-.394-.069-.411-.051-.446-.034-.48-.034-1.063-.051-1.268-.051-.069.154-.051.154-.051.171-.034.171-.017.171-.017.188v.189l.017.189.034.377.086.394.086.411.12.411.257.823.274.806.137.394.1.394.1.36.069.36-.48.017-.463.051-.446.068-.429.086-.428.086-.446.069-.463.051-.48.034-.12-.754-.137-.771-.069-.377-.1-.377-.086-.377-.12-.36-.137-.377-.154-.343-.171-.343-.188-.326-.223-.309-.257-.291-.12-.137-.154-.137L30,53.824l-.154-.137-.017.034-.017.051-.017.086-.017.137-.034.308-.017.36-.017.7-.017.429.12.154.1.137L30,56.24l.086.171.068.154.051.171.034.154.034.171.017.171v.343l-.017.154-.034.171-.034.171-.051.154-.068.154-.069.154-.086.137-.086.154-.1.137-.12.12-.12.12-.12.12-.137.1-.154.086-.154.086-.154.069-.171.051-.171.051-.188.034-.189.034h-.394l-.189-.034-.171-.034-.171-.034-.171-.069-.171-.069-.137-.086-.154-.086-.137-.1-.12-.12-.12-.12-.12-.12-.1-.137-.086-.137-.086-.137L25.66,58.4l-.069-.154-.051-.171-.034-.154-.034-.171-.017-.154-.017-.171.017-.171V57.08l.034-.171.034-.154.051-.171.068-.154.069-.154.1-.154.1-.154.12-.154-.086-1.886-.24.257-.223.274-.189.291-.171.291-.171.309-.137.326L24.7,56l-.1.343-.1.343-.086.343-.086.343-.069.343-.12.686-.12.686-.257-.017-.257-.017-.24-.017L23.021,59l-.446-.1-.429-.1-.446-.1-.446-.086-.223-.034-.24-.034-.24-.017H20.3l.1-.583.086-.583.12-.583.12-.566.154-.566.171-.566.1-.274.12-.274.137-.257.137-.274-.017-.154-.051-.171-.069-.189-.086-.171-.189-.377-.154-.309-.994.034-.977.086-.96.1-.943.137-.48.086-.463.086-.48.086-.463.12-.48.1-.463.137-.48.137-.463.154.017.206-.017.206-.034.206-.051.206-.086.189-.1.171-.137.171-.171.154-1.286.5-1.3.514-1.286.5-1.286.514-1.286.5-1.3.514-1.286.514-1.286.5,1.663-3.6L0,54.663l5.142-2.537.017-.291.017-.257.051-.223.086-.223.1-.206.137-.206.154-.189.206-.206.309-.188.326-.171.343-.154.36-.154.72-.291.771-.257.771-.24.771-.206.737-.206.7-.206-.12-.171-.137-.137-.12-.12-.12-.068-.137-.069-.12-.034-.12-.017h-.137l-.583.1-.788.171-.171-.137-.189-.12-.189-.12L8.6,47.447l-.429-.154-.446-.137L7.268,47l-.48-.171-.257-.12-.24-.12-.257-.154-.257-.171-.257-.206L5.262,45.8l-.12-.137-.1-.137-.12-.154-.086-.154-.086-.154-.069-.171-.051-.171-.051-.171-.017-.171.017-.171.034-.171.051-.171.051-.069.069-.069.068-.034.1-.034.223-.017h.48l.223-.017.1-.017.086-.051.069-.051.051-.086.017-.034V43.35L6.188,43.3l-.017-.051-.051-.1-.068-.137-.24-.291-.274-.309-.291-.326-.257-.308-.12-.154-.1-.12L4.7,41.362l-.051-.1-.068-.291-.086-.291-.069-.309-.1-.291-.1-.206-.12-.206-.137-.206-.1-.206L3.771,39,3.7,38.739l-.068-.257-.086-.257-.069-.206-.069-.206-.017-.051-.017-.051-.034-.034-.034-.034-.12-.017h-.24L2.9,37.591l-.034-.034-.017-.051-.017-.069.017-.069.017-.068.051-.137.034-.137h0l.017-.137.017-.137.034-.137.017-.12.051-.377.051-.377.051-.36.068-.36.034-.257v-.206l-.017-.206-.034-.189L3.1,33.82l-.154-.343-.069-.188L2.828,33.1l-.051-.223-.017-.24.017-.257.034-.291.086-.326.12-.377.017-.017.017-.017H3.1l.068.034.069.034.086.034.069.034h.051l.034-.017.017-.017.017-.086.017-.1-.017-.086-.034-.1-.069-.206-.051-.189-.034-.223-.051-.206L3.257,30.2l-.017-.069-.034-.069-.034-.034L3.068,30l-.12-.017L2.9,29.963H2.845l-.034-.034-.034-.034-.017-.051v-.069l.017-.051.034-.069.051-.12.051-.12h0l.034-.137.034-.137.051-.12.034-.137.086-.36.051-.377.051-.188.051-.171.068-.171.1-.154.24-.086.343-.086.069-.051.034-.034.034-.068-.017-.051L4.148,27l-.086-.1-.12-.1-.171-.137-.12-.1-.086-.12L3.5,26.295l-.051-.137L3.428,26V25.66l.034-.171.051-.171.051-.188.069-.171.086-.189.171-.343.188-.309.017-.034.034-.017h.086L4.3,24.1l.086.051.1.051.1.051.1.051h.137l-.017-.017h0l-.034-.017-.069-.034L4.662,24.2l-.069-.034-.051-.051-.034-.034-.069-.257-.034-.24-.034-.274-.034-.257L4.3,22.866l-.034-.189-.034-.1-.034-.1-.034-.086L4.1,22.3l-.069-.034-.086-.017-.051-.017H3.857l-.017-.017-.017-.034.017-.137.017-.137.034-.12.051-.137.1-.257.086-.274.086-.309.051-.308.051-.154.034-.154.069-.154.069-.137.017-.017h.051l.034.034.086.051L4.748,20l.1.051.12.069.051.017.051.017.051-.017.034-.017.034-.051v-.12L5.177,19.9l-.051-.137-.034-.12-.034-.171L5.005,19.3l-.017-.086-.034-.1-.034-.086-.051-.069-.137-.051-.137-.069V18.77l.017-.086.051-.069L4.7,18.53H4.679l.206-.686.343-1.217h0l.034-.086.514.223,1.3.343.754-.017.154.068.137-.908.223-.788.377-.754.531-.737.668-.36,1.388-1.371L13.1,13.953l-.257.343.034.171.1.36.36.926-.428,1.131-.12.1.994-.566V12.976H23.826l-.12-.068-.137-.069-.12-.086-.12-.1-.1-.1-.1-.1-.086-.1-.086-.12-.171-.24-.12-.24-.086-.274-.069-.274-.017-.12-.017-.137V10.8l.017-.137v-.137l.034-.12.034-.137.034-.12.051-.12.069-.12.069-.1.086-.1.1-.1.1-.1.1-.086.12-.086.189-.5.171-.514.137-.5.12-.514.034-.274.034-.274L24,6.479V5.9l-.017-.309-.034-.308-.051-.326,1.457.274V4.782l.034-.223.034-.206.051-.206.051-.188.069-.189L25.66,3.6l.154-.309.154-.274.137-.223.1-.154.137.051.137.017.154.017h.274l.137-.034.137-.034.137-.034.257-.12.274-.154.257-.171.24-.206.257-.223.24-.24.24-.257.223-.257L29.757.48,30.169,0l.257.463.223.48.206.48.171.514.154.5.12.514.1.514.086.514.326.634.274.6.12.291.12.274.086.291.069.274.069.291.034.291.017.291v.309l-.034.308-.051.343-.069.343-.1.377v.12l.017.1.034.12.051.12.1.223.12.24.154.24.137.24.137.24.12.257.051.12.034.137.034.12.017.137v.257l-.017.137-.051.12-.051.137-.086.137-.086.137-.12.137-.137.12-.171.137-.189.137-.223.154-.12.051H42v4.731l.206.154.171.1.154.069.154.051.326.034.48.017-.12-.188-.1-.171-.086-.171-.069-.188-.068-.171-.051-.189-.051-.171L42.9,16.7l-.034-.171-.017-.189v-.36l.017-.171.034-.171.017-.171.051-.171.051-.171.051-.171.069-.171.086-.154.086-.154.1-.154.1-.154.1-.154.12-.137.137-.137.137-.137.137-.137.154-.12.171-.12.154-.12.189-.1.6.514.6.531.291.291.257.274.257.309.206.308.1.154.086.154.068.171.069.154.051.171.051.171.017.189.017.171v.188l-.017.189-.017.189-.051.206-.068.188-.069.206-.1.223-.12.206L47.5,18l.394-.12.377-.086.377-.086.377-.086.394-.1.206-.068.206-.086.223-.1.223-.1.051.463.051.446.034.428.017.394-.017.394-.034.411-.086.411-.12.446,1.491-.068-.12.428-.1.411-.1.394-.086.394-.086.394-.1.394-.12.394-.154.411.137-.069.137-.051.1-.034.086-.017h.154l.12.017.137.034H51.8l.1-.017.1-.034.12-.051.154-.069-.154.531-.12.531-.12.514-.1.514-.1.514-.12.514-.154.514-.171.531.24-.086.206-.051.154-.017.137-.017.137-.017.154-.034.189-.051.257-.086-.326,1.1-.36,1.063-.171.48-.154.463-.12.411-.086.36-.034.154-.034.137v.223l.017.086.034.069.051.034.068.017.086-.017.1-.034.12-.051.137-.1.171-.1.189-.154.206-.189.24-.206-.223.668-.206.566-.154.463-.154.429-.154.428-.171.48-.223.531-.257.668.189-.034.171-.017.137.017.12.017.086.034.086.051.069.051.069.051.068.051.069.051.086.034.1.051.1.017h.309l.206-.034L51.2,38.294l.086.068.068.1.069.086.069.1.1.223.086.24.086.223.1.223.069.1.068.1.069.086.1.069-.463.514-.36.411-.326.36-.274.343-.291.326-.326.343-.377.377-.5.446.171.051.154.069.154.051.137.068.257.154.24.171.24.171.257.154.137.069.137.069.154.051.171.051-.377.206-.36.223-.36.24-.326.274-.651.531-.617.531-.291.24-.309.223-.309.189L47.55,47l-.154.051-.171.069-.154.034-.171.051-.171.017h-.36l-.189-.017-1.886-.1-.188.257-.137.223-.086.189-.069.154-.017.12v.1l.017.051.034.034.034.034.034.017.1.051.137.051.171.034.206.051.463.1.583.154ZM30.169,47.19h-.017l.034.017.069.017h.411l.428-.017,1.148-.034,1.44-.051.806-.017h1.663l.84.017.84.034.806.051.754.069.7.1.377-.411.36-.394.343-.429.343-.428-.223-.051-.189-.086-.188-.086-.189-.1-.154-.137-.154-.137-.154-.154-.12-.154-.137-.189-.12-.189-.12-.223-.1-.223-.223-.48-.206-.531-.24.189-.257.171-.257.171-.257.171-.531.309-.566.274-.566.274-.583.24-.583.24-.6.223-1.2.446-1.183.446-.583.24-.566.257L30.7,46.9l-.531.291ZM16.644,43.2l-.12.051-.137.1-.171.137-.154.171-.36.394-.36.429L15,44.927l-.291.411-.206.326-.12.206-.12.068-.086.069-.034.051-.017.034v.1l.017.1.051.1.069.1.086.1.48.446.428.377,1.08-.154,1.1-.12,1.148-.1,1.183-.068,1.2-.034,1.251-.017H23.5l1.32.034-1.028-.377-1.011-.411-1.029-.428-1.011-.463-1.028-.48L18.7,44.293l-1.028-.531L16.644,43.2Z" transform="translate(39 -29)" fill="#fff" fill-rule="evenodd"/>
    <path id="_75569584" d="M26.415,12.444l-.257.326-.223.274h.96l-.206-.274-.274-.326ZM28.4,56.738l.154.086.12.1.1.12.1.12.069.154.069.154.034.171.017.171-.017.12-.017.12-.034.12-.034.1-.051.12-.069.086-.068.1-.069.086-.086.086-.1.069-.1.051-.1.051-.1.051-.12.017-.12.017-.137.017-.12-.017L27.6,59l-.12-.017-.1-.051-.1-.051-.1-.051-.1-.069-.086-.086-.069-.086-.086-.1-.051-.086-.051-.12-.034-.1-.034-.12-.017-.12-.017-.12.017-.171.034-.171.051-.154.068-.137.1-.137.1-.12.12-.1.137-.086-.394-9.873-.326-.223-.343-.223-.377-.223L25.4,45.99l-.428-.206-.446-.206-.463-.206-.5-.206-1.011-.411L21.5,44.327l-1.1-.446-1.08-.5-.514-.24-.48-.257-.446-.257-.428-.274-.394-.274-.36-.291L16.37,41.5l-.308-.291-.274-.309-.24-.308-.206-.309-.154-.326L15.1,39.8l-.051-.171L15,39.476l-.051-.171-.034-.171-.017-.171-.017-.171-.017-.171V27.786l-.017-1.543V13.867H25.506V12.29h-.257l-.086-.017-.069-.034-.069-.034-.068-.069-.034-.069L24.872,12l-.017-.086v-.189l.017-.086.051-.086v-.017h-.514l-.068-.017-.051-.034-.068-.017-.051-.034-.051-.034-.051-.051-.034-.051-.051-.051-.034-.051-.017-.051-.017-.069-.017-.051-.017-.069v-.446l.017-.068.017-.051.017-.068.017-.051.034-.051.051-.051.034-.051.051-.051.051-.034.051-.034.068-.017.051-.034.068-.017h.446V9.411h6.017v.514h.6l.069.017.069.034.051.017.051.034.051.034.051.051.051.051.034.051.034.051.034.051.017.068.017.051v.068l.017.069v.308L32,10.953v.069l-.017.051-.017.069-.034.051-.034.051-.034.051-.051.051-.051.051-.051.034-.051.034-.051.017-.069.034-.069.017h-.634v.017l.034.086.017.086.017.086v.017l-.017.086L30.871,12l-.034.068-.051.069-.051.069-.068.034-.086.034-.069.017h-.189v1.577H40.882V25.18h0V38.774l-.017.171-.034.171-.051.171-.051.171-.069.171-.068.171-.086.188-.189.343-.24.343L39.8,41l-.291.343-.343.326-.36.309-.394.308L38,42.579l-.446.274-.463.257-.48.24-.514.223-1.114.446-1.08.411-1.046.394-.977.377-.908.377-.806.377-.377.188-.343.189-.308.188-.274.206L28.4,56.738Zm-.549-44.31-.274.343-.223.274h.994l-.223-.274-.274-.343Zm1.508-.017-.274.343-.223.291h.96l-.188-.291-.274-.343Z" transform="translate(39 -29)" fill="#1f1a17" fill-rule="evenodd"/>
    <path id="_75569776" d="M15.033,14.073H40.676V25.386H15.033Z" transform="translate(39 -29)" fill="#00478f" fill-rule="evenodd"/>
    <path id="_75569952" d="M29.62,9.462l-3.531.017L26,9.239l-.051-.223-.034-.206V8.639l.034-.154L26,8.331l.086-.154.12-.154.017.206.017.171.034.12.051.086.034.051.051.017h.051l.034-.034.034-.24.069-.223.068-.223.086-.206.171-.36.188-.308.189-.274.154-.223.068-.086.034-.086.034-.068.017-.051.154.977.12-.051.1-.069.1-.086.086-.086.069-.086.069-.1.068-.1.051-.1.086-.206.051-.206.034-.206V5.794l.051-.223.017-.223.017-.188-.017-.154.017.189.017.188.034.206.034.206.086.411.069.429.034.223v.429l-.034.206-.051.188-.086.189-.1.188-.154.171.154-.069.137-.086.12-.1.1-.1.086-.1.086-.12.068-.12.051-.12-.069.188-.1.206-.12.171-.154.171-.069.068-.086.069-.1.069-.086.051-.1.034-.086.034-.1.017h-.1l.137-.154.12-.154.086-.154.069-.171.051-.171.034-.171.034-.154V6.839L28.66,6.5l-.034-.343-.017-.343-.034.154-.051.137-.069.154-.086.137-.086.12-.1.1-.137.1-.137.069-.171-1.011v.069l-.034.068L27.649,6l-.086.1-.171.24-.206.274-.12.171-.1.171-.12.188-.086.206-.1.206-.069.24-.068.223-.051.257-.034.034h-.017L26.38,8.3l-.017-.051-.034-.223-.017-.411-.154.24-.137.206-.086.206-.068.189-.017.1-.017.1V8.9l.034.274.086.308h-.377l-.1-.154L25.4,9.171l-.086-.154-.051-.137-.051-.137L25.18,8.6l-.034-.12-.017-.137v-.24l.017-.223.034-.206.034-.206.12-.377.1-.36.017-.171V6.394l-.017-.086-.017-.086-.034-.1-.034-.086.137.086.154.086.137.069.154.086.12-.017.154-.051.086-.034.086-.051.086-.068.086-.1.069-.12.069-.154.051-.188.034-.223.017-.257-.017-.308-.017-.36-.051-.411.908.514.069-.291.1-.274.1-.24.137-.223.154-.206.171-.188.171-.171.171-.171.377-.291.36-.274.171-.137.154-.12.154-.137.137-.137-.086.1-.051.1-.051.1-.051.1-.051.223-.017.24v.24l.017.24.034.24.034.24.034.257.034.24.017.24.017.223-.034.223L29.86,4.9l-.034.086-.051.1-.051.1-.069.086.1.051.086.017.1.017.086-.034L30.1,5.28l.086-.1.069-.154L30.34,4.8l.137.189.12.206.051.12.034.1.034.12.017.12.017.12v.137l-.017.137-.034.154-.051.137-.068.171-.086.154-.1.171.051.017.051-.017h.068l.051-.017.12-.068.1-.1.12-.1.1-.137.086-.12.068-.137-.034.429-.034.411-.051.394-.068.394-.051.188-.068.206-.086.189-.1.206-.12.223L30.443,9l-.171.223-.206.24h-.171l.12-.171.086-.171.069-.154.068-.154.034-.154.034-.154.017-.12.017-.137V8.039l-.017-.154-.017-.1-.017-.034-.051.12-.051.1-.069.1-.086.086.017.069.017.086v.12l-.034.154L30,8.759l-.086.206-.12.24-.171.257Zm-.206-2.3.051.1.051.086.034.1.017.086.017.189-.017.171-.069.36-.051.377.171-.069.137-.086.068-.051.051-.069.051-.069.051-.068-.137.1-.137.069.069-.223.051-.24.017-.206-.017-.223-.034-.223-.086-.206-.1-.223-.137-.206-.017.12v.137l-.017.12-.017.137Z" transform="translate(39 -29)" fill="#da251d" fill-rule="evenodd"/>
    <path id="_75570136" d="M23.261,22.267l-.326,1.063.891.686-1.131.034-.377,1.046-.377-1.046L20.809,24l.891-.668-.291-1.1.908.668.943-.634Zm-.548-4.045h4.44l.086.017.086.034.034.051.034.051.017.069v.1h0l-.017.086-.051.069-.069.034-.086.017H25.54l-.086.017-.051.017-.051.051-.051.034-.017.069-.017.051v.051l.017.051h0l.034.051.034.034.034.017.051.034H40.676v3.188h-15.2L25.42,22.4l-.034-.017-.034-.034-.034-.034-.017-.086-.017-.069v-1.08H22.3l1.32-1.3-.908-1.56Zm.034-3.205-.463,1.011.806.788-1.114-.086-.514,1.011-.223-1.114-1.131-.154.977-.566L20.9,14.776l.857.754.994-.514Zm-4.268-.206-.463,1.011.823.788-1.131-.1-.5,1.028L16.97,16.4l-1.114-.154.96-.548-.171-1.131.84.737.994-.5ZM17.364,19.2l-.154,1.046.891.5L17.09,20.9l-.24,1.028L16.387,21l-1.046.1.754-.737-.411-.943.909.463.771-.686Zm4.354-.5-.394.874.668.634-.926-.069-.394.84-.206-.926-.943-.154.806-.463-.154-.908.7.617.84-.446Z" transform="translate(39 -29)" fill="#fff" fill-rule="evenodd"/>
    <path id="_75570328" d="M15.05,25.609H40.659V31.3l.017.806v6.479l-.086.5-.137.48-.206.428-.24.429-.291.394-.343.36L39,41.516l-.411.326-.446.326-.463.291-.5.274-.514.257-.531.257-.531.24-.566.24-.548.223-1.114.428-1.1.429-.531.223-.514.206-.48.223-.463.223-.446.223-.411.24-.36.24-.343.257-.274.274-.257.274-.189.308-.137.309-.154-.309-.206-.308-.257-.291-.309-.274-.343-.257-.394-.257-.411-.24-.446-.223-.48-.24-.5-.223-.531-.223-.531-.223L22.2,44.31l-1.114-.446-.566-.24-.548-.24-.548-.24-.514-.257-.514-.257-.48-.291-.463-.291L17,41.756l-.394-.326-.36-.343-.326-.36-.274-.377-.223-.394-.171-.428-.12-.446-.069-.48L15.05,25.609ZM26.4,12.273l.36.446.36.429H25.712l.36-.429Zm-1.44-2.725h5.811v.377H24.958Zm-.394.463h6.788l.12.017.1.034.1.051.086.068.068.086.051.086.034.1v.531l-.034.1-.051.1-.068.069-.086.068-.1.051-.1.034-.12.017H24.563l-.12-.017-.1-.034-.1-.051-.086-.068-.069-.069-.051-.1-.034-.1-.017-.12v-.291l.017-.12.034-.1.051-.086.069-.086.086-.068.1-.051.1-.034Zm.7,1.526h5.3l.051.017.051.034.051.034.034.051.034.068.017.051v.154L30.786,12l-.034.068-.034.051-.051.034-.051.034-.051.017-.068.017H30.22v1.646H25.609V12.222h-.343L25.2,12.2l-.051-.017-.051-.034-.051-.034-.034-.051L24.975,12l-.017-.051v-.154l.017-.051.034-.068.034-.051.051-.034.051-.034.051-.017h.069Zm3.48,35.38L28.3,56.789l.137.086.137.086.1.12.1.12.068.137.069.154.034.154.017.171-.017.1-.017.12-.017.1-.051.1-.034.1-.069.086-.051.086-.069.086-.086.069-.086.068-.1.051-.086.051-.1.034-.1.017-.12.017-.12.017-.1-.017-.12-.017-.1-.017-.1-.034-.1-.051-.086-.051-.086-.068-.086-.069-.069-.086-.069-.086-.051-.086-.051-.1-.034-.1-.017-.1-.017-.12-.017-.1.017-.171.034-.154.051-.154.086-.12L27,57.08l.1-.1.12-.1.137-.069-.394-9.89.154.154.137.154.12.154.12.171.206.36.189.394.154-.343.154-.309.068-.154.1-.137.1-.154.12-.154.154-.137Zm-.891-34.66.36.463.36.429H27.152l.343-.429.36-.463Zm1.508,0,.36.428.308.463H28.643l.36-.463.36-.428Z" transform="translate(39 -29)" fill="#fee300" fill-rule="evenodd"/>
    <path id="_75733784" d="M26.278,34.917l.086-.051.1-.034.12-.017.12-.034.326-.034.343-.017.24.017h.223l.188.034.171.034.154.034.1.051.034.017.034.034.017.017v.069l-.017.017-.034.034-.034.017-.1.051-.154.034-.171.034-.188.034-.223.017h-.463l-.223-.017-.206-.034-.171-.034-.137-.034-.12-.051-.034-.017-.034-.034-.017-.017V35l.017-.051Z" transform="translate(39 -29)" fill="#da251d" fill-rule="evenodd"/>
    <path id="_75733968" d="M27.186,18.753H25.541l-.069.017-.051.017-.034.017-.034.034-.069.069-.017.086.017.086.034.086.034.017.034.034.051.017h1.971l.017-.72-.017.034-.017.052-.017.034-.017.052-.034.017-.051.034-.034.017Z" transform="translate(39 -29)" fill="#1f1a17" fill-rule="evenodd"/>
    <path id="_75734160" d="M25.66,21.684l.446-1.663h.171l.5,1.663h-.189l-.137-.5h-.5l-.137.5h-.154ZM26,21H26.4l-.12-.463-.051-.189-.034-.154-.034.154-.034.154L26,21Zm.908.686V20.021h.531l.137.017.1.034.034.017.034.034.034.051.034.034.034.137.017.12-.017.086v.086l-.034.069-.034.069-.051.051-.051.034-.069.034-.086.034.051.034.051.051.068.086.051.12.206.463h-.189l-.154-.343-.068-.137-.051-.1-.034-.069L27.409,21l-.034-.034-.034-.017h-.257v.737h-.171Zm.171-.926h.326l.1-.017.069-.017.051-.034.034-.069.034-.069v-.086l-.017-.1-.034-.086-.034-.034-.051-.017-.051-.017-.069-.017h-.36v.566Zm.994.394.154-.017.017.1.034.1.051.069.069.051.086.034.1.017.069-.017.086-.017.051-.051.034-.051.034-.068v-.154l-.034-.051-.034-.069L28.746,21l-.086-.034-.137-.051-.137-.051-.086-.051-.086-.068-.051-.086-.034-.1V20.33l.051-.12.017-.051.034-.034.051-.051.051-.017L28.42,20l.12-.017.137.017.1.051.051.034.034.034.034.051.034.051.034.12.017.137-.154.017v-.069l-.017-.068-.034-.051-.017-.051-.051-.034-.034-.017-.068-.017-.051-.017-.068.017-.069.017-.034.017-.034.034-.034.034-.017.034-.017.051v.137l.051.069.069.051.154.051.171.068.1.051.086.069.051.1.051.1v.257l-.051.12-.034.051-.034.051-.034.051-.051.034-.1.034-.12.017-.154-.017-.12-.034-.051-.051-.051-.034-.034-.051-.034-.069-.017-.069-.034-.068-.017-.086v-.068Zm1.851.531V20.021h.857v.189H30.1v.514h.651v.189H30.1V21.5h.72v.189h-.891Zm1.44,0V20.21h-.394v-.189h.943v.189h-.394v1.474Zm1.337-.531.154-.017.017.1.034.1.051.069.068.051.086.034.086.017.086-.017.086-.017.051-.051.051-.051.017-.068.017-.069-.017-.086-.017-.051-.051-.069L33.374,21l-.086-.034-.137-.051-.137-.051-.086-.051-.086-.068-.051-.086-.017-.1-.017-.1.017-.12.034-.12.034-.051.034-.034.034-.051.051-.017.1-.051.1-.017.137.017.1.051.086.069.068.1.034.12.034.137-.154.017-.017-.069-.017-.068-.017-.051-.034-.051-.034-.034-.051-.017-.051-.017-.069-.017-.068.017-.051.017-.051.017-.034.034-.034.034-.017.034-.017.051v.051l.017.086.017.069.086.051.154.051.171.068.1.051.086.069.069.1.034.1.017.12-.017.137-.051.12-.034.051-.034.051-.034.051-.051.034-.1.034-.12.017-.154-.017-.12-.034-.051-.051-.051-.034-.034-.051-.034-.069-.017-.069-.034-.068v-.086l-.017-.068Zm2.04-.051.154.051-.034.137-.034.1-.051.1-.069.069-.068.069-.069.034-.086.034h-.171l-.086-.017-.069-.034-.069-.051-.051-.069-.051-.069-.034-.086-.034-.086-.051-.223-.017-.223v-.137l.017-.1.017-.12.034-.1.034-.086.051-.086.051-.069.051-.051.068-.051.086-.017.068-.034H34.4l.086.017.086.017.069.034.068.069.051.068.051.069.034.1.034.1-.154.051-.034-.068-.017-.086-.034-.051-.034-.051-.051-.034-.034-.034-.051-.017h-.137l-.051.017-.051.034-.051.034-.034.051-.051.069-.017.069-.034.068-.017.154-.017.154.017.206.017.171.034.069.034.068.034.069.051.034.051.034.034.017.051.017.051.017.068-.017.051-.017.069-.034.034-.051.051-.051.034-.069.034-.086.017-.1Zm.394.583V20.021h.154v1.663Zm.463,0V20.021h.857v.189h-.7v.514h.651v.189h-.651V21.5h.737v.189H35.6Zm1.131,0V20.021h.154l.617,1.3v-1.3h.154v1.663h-.154l-.634-1.32v1.32Zm1.508,0V20.21h-.394v-.189h.96v.189h-.394v1.474Zm.771,0V20.021h.154v1.663Zm.326,0,.446-1.663h.171l.5,1.663h-.188l-.137-.5h-.5l-.137.5ZM39.682,21h.394l-.12-.463-.051-.189-.034-.154-.017.154L39.8,20.5l-.12.5Z" transform="translate(39 -29)" fill="#da251d" fill-rule="evenodd"/>
    <path id="_75734336" d="M35.242,34.865l.171.137.154.137.137.154.137.154.12.188.1.206.086.206.068.24-.017-.36-.069-.343-.069-.326-.12-.291-.12-.274-.154-.24-.188-.24-.206-.189-.017.823Z" transform="translate(39 -29)" fill="#da251d" fill-rule="evenodd"/>
    <path id="_75734520" d="M30.94,36.185l4.251-1.3h0v-.017h0v-.017l.017-.84-5.52,1.68,1.2.48h0Z" transform="translate(39 -29)" fill="#da251d" fill-rule="evenodd"/>
    <path id="_75734712" d="M37.985,34.317v1.56l-.36.429v-.051l-.017-.034v-.086l-.017-.086-.034-.206-.034-.206-.051-.206-.051-.206Z" transform="translate(39 -29)" fill="#da251d" fill-rule="evenodd"/>
    <path id="_75734888" d="M37.248,37.951v1.388h0l-.068.189-.1.171-.137.171-.137.171-.171.172-.188.188-.206.171-.206.189-.24-1.234.223-.189.223-.171.206-.206.188-.189.171-.206.154-.188.154-.223Z" transform="translate(39 -29)" fill="#da251d" fill-rule="evenodd"/>
    <path id="_75735072" d="M38.636,37.505v1.337l-1.32.394L37.3,37.865Z" transform="translate(39 -29)" fill="#da251d" fill-rule="evenodd"/>
    <path id="_75735264" d="M38.619,37.471h.017v.017Z" transform="translate(39 -29)" fill="#da251d" fill-rule="evenodd"/>
    <path id="_75735440" d="M33.46,42.425l-1.08-.806-.086-1.543,1.131.754.034,1.56h0Z" transform="translate(39 -29)" fill="#da251d" fill-rule="evenodd"/>
    <path id="_75735624" d="M34.608,41.756V40.282l1.371.531H36V42.3l-1.388-.531Z" transform="translate(39 -29)" fill="#da251d" fill-rule="evenodd"/>
    <path id="_75570640" d="M33.494,40.831l1.063-.531-.017,1.44h0v.034l-1.028.651V42.39h0Z" transform="translate(39 -29)" fill="#da251d" fill-rule="evenodd"/>
    <path id="_75570816" d="M29.26,37.265l-.189.086-.171.086-.206.069-.189.069-.206.051-.223.051-.223.034-.223.017-.223.017h-.223l-.223-.017-.24-.017-.223-.034-.24-.034-.223-.051-.223-.069h0l.017-.977h0L25.4,36.2l.017-.926.069.1.1.086.1.069.12.068.12.051.137.051.137.051.154.034.291.051.274.034.274.017.223.017h.549l.309-.034.291-.051.154-.034.137-.051L29,35.705l.12-.069.12-.051.1-.069.1-.086.069-.086.017.72-.274.189h0v.977Z" transform="translate(39 -29)" fill="#da251d" fill-rule="evenodd"/>
    <path id="_75571000" d="M33.768,39.391l-4.44-2.125v-.908l5.3,2.451-.189.171-.257.171-.24.154Z" transform="translate(39 -29)" fill="#da251d" fill-rule="evenodd"/>
    <path id="_75618904" d="M33.185,33.8l-.5-.24-.5-.223-.514-.189-.531-.171-.549-.137-.549-.1-.566-.086-.6-.034-.6-.017-.617.017-.634.069-.651.086-.651.137-.686.171-.72.206-.72.24L22.369,33l.411-.189.411-.171.428-.154.411-.137.446-.137.446-.1.428-.1.446-.069.566-.086.566-.051.566-.034h.566l.549.017.566.051.549.069.531.086.531.1.531.137.514.154.514.188.5.189.48.223.463.24.463.257-.274.086-.257.086-.274.069Z" transform="translate(39 -29)" fill="#da251d" fill-rule="evenodd"/>
    <path id="_75225088" d="M21.5,34.505l-.154.137-.154.154-.137.171-.137.154-.1.154-.1.171-.086.171-.086.171-.051.171-.052.171-.051.171-.017.189-.017.189v.377l.017.188h0l-.12-.274-.1-.257-.086-.257L20,36.2l-.017-.24v-.257l.034-.24.051-.24L20.158,35l.12-.24.137-.223.154-.223.188-.223.223-.223.24-.223.274-.206Z" transform="translate(39 -29)" fill="#da251d" fill-rule="evenodd"/>
    <path id="_77769000" d="M25.369,35.02l-.017.034v.034l-.017.771-.171.051-3.6-1.44h0V33.425L25.369,35Z" transform="translate(39 -29)" fill="#da251d" fill-rule="evenodd"/>
    <path id="_75325424" d="M25.763,37.505h-.017l-3.977,1.268h-.017l-.034-.017-.206-.154-.206-.154-.189-.171-.206-.171L25.781,36.6Z" transform="translate(39 -29)" fill="#da251d" fill-rule="evenodd"/>
    <path id="_79334992" d="M17.158,37.659v-1.32l.96.651v1.337Zm1.011-.583.017.034.12.223.154.291.189.326.188.274.206.274.206.257.223.223.223.223-.48.806-.171-.171-.171-.171-.137-.188-.137-.189-.137-.206-.1-.206-.1-.223-.086-.223h0V37.077Z" transform="translate(39 -29)" fill="#da251d" fill-rule="evenodd"/>
    <path id="_73770184" d="M20.69,41.67l-1.423.034-.034-1.646,1.474-.017L20.69,41.55h0Z" transform="translate(39 -29)" fill="#da251d" fill-rule="evenodd"/>
    <path id="_73633160" d="M22.027,40.813l-.034,1.594-1.234-.72V40.059Z" transform="translate(39 -29)" fill="#da251d" fill-rule="evenodd"/>
    <path id="_75517216" d="M23.278,39.7l-.12,1.56-1.1,1.131v-.12l.017-1.44Z" transform="translate(39 -29)" fill="#da251d" fill-rule="evenodd"/>
    <path id="_75519896" d="M23.278,39.648Z" transform="translate(39 -29)" fill="#da251d" fill-rule="evenodd"/>
    <path id="_74275872" d="M25.935,34.54l-.188.1-.171.1-.1.1-.086.1-3.84-1.594h-.034l-.292.223-.257.223-.223.223-.206.223-.171.24-.137.24-.12.24-.086.24-.069.257-.034.24v.257l.034.257.051.257.068.274.12.274.137.274h0l.017.034.017.017h.017l4.765-1.371.206-.051v.309l.394.309-4.885,1.508-.052.017.034.034.206.206.223.189.206.154.206.154.377.24.394.223.394.188.411.189-1.2,1.114-1.32-.771v-.017l-1.457.017.48-.771.017-.034-.017-.017-.24-.206-.223-.24-.206-.257-.206-.274-.189-.274-.171-.291-.171-.309-.154-.326-.034-.051h0v-.017h-.017l-.977-.634,1.2-.274.1-.291.154-.326.172-.326.206-.326.24-.343.274-.343.291-.343.326-.36-.017-.823,1.166.24.326-.188.326-.171.343-.171.326-.154.343-.154.343-.137.343-.12.36-.12.343-.1.36-.1.36-.086.36-.069.377-.069.377-.051.377-.034.377-.034.377-.017.394-.017.394.017.394.017.394.017.411.034.411.052.411.068.411.069.429.1.428.086.429.12.446.12.446.137.446.154.446.154.891-.12v.6l.326.154.291.154.291.188.274.206.257.206.257.24.24.24.24.257,1.286.017-.6.943v.034l.069.206.051.223.034.223.034.223.052.411v.326l1.011.6-1.337.36h-.017v.017l-.154.24-.154.223-.171.223-.189.206-.189.206-.206.189-.223.188-.223.172-.017.017v.017l.24,1.217-1.354-.514-.034.017-1.114.549-1.131-.754,1.474-.583.274-.154.274-.189.206-.171.137-.12.017-.034-.034-.017-5.365-2.468h0l.274-.189.017-.017v-.017l-.017-.343h0l1.269.5.583.24.6.223.583.24.6.223.583.24.6.24.583.24.6.223.12-.171.12-.172.12-.188.1-.206.086-.206.069-.223.051-.24.034-.257v-.343l-.017-.171-.034-.171-.034-.171-.034-.171-.051-.171-.051-.154L36,34.9l-.086-.154-.086-.154-.086-.137-.1-.137-.12-.137-.1-.12-.137-.12-.017-.017-.034-.017-5.64,1.748h0v-.171l-.017-.171v-.377l3.565-1.063,1.2-.36.051-.017-.051-.034-.463-.274-.463-.24-.5-.223-.5-.206-.514-.171-.514-.154-.549-.154-.531-.1-.549-.1-.549-.069-.566-.034-.566-.017h-.566l-.583.017-.566.069-.566.069-.446.086-.446.086-.446.12-.446.137-.429.137-.428.154-.446.188-.429.189v.017L22.232,33l.051.034.463.189.446.189.463.189.463.189.446.188.463.189.463.189Z" transform="translate(39 -29)" fill="#da251d" fill-rule="evenodd"/>
    <path id="_75234064" d="M25.3,49.384v-.206l-.034-.188-.051-.172-.086-.12-.086-.1-.1-.086-.12-.051-.12-.017-1.474-.051-1.371-.017H20.569l-1.2.034-.583.034-.566.051-.549.051-.531.051-.531.069-.514.068-.514.086-.514.086-.994.206-1.011.24-.994.274-1.028.309-1.063.343-1.114.377-1.148.411-1.234.446-.086.051-.086.052-.069.069-.069.086-.051.086-.034.12v.12l.017.154.326.857L2.486,54.818l3.462.36L3.908,58.3l7.731-3.428.1-.086.069-.086.051-.086.017-.1v-.086l-.017-.086-.034-.086-.034-.051-.309-.72.634-.24.651-.206.634-.206.634-.171.617-.171.634-.137.617-.137.634-.1.634-.1.634-.086.634-.069.634-.069.651-.051L20.4,51.7l.669-.017.668-.017.549,1.371.086.1.069.069.086.017.12.017.651-.137.668-.1.651-.1.651-.069.651-.069.651-.034.651-.034h.651l.651.017.651.017.651.051.651.051.651.086.651.1.651.1.668.137.12-.017.086-.017.069-.069.086-.1.549-1.371.669.017.668.034.668.034.651.052.634.051.651.069.634.086.617.1.634.12.617.12.634.154.634.154.617.189.651.189.634.223.651.24-.326.7-.034.069-.017.069-.017.086-.017.086.017.1.051.086L44,54.8l.1.086,7.731,3.428-2.04-3.1,3.463-.36-3.943-1.731.326-.857.034-.12-.017-.1-.017-.12-.052-.1-.069-.086-.086-.086-.086-.069-.086-.051-1.234-.446-1.148-.411-1.114-.377L44.7,49.95l-1.028-.308-.994-.274-1.011-.24-.994-.206-.514-.086-.514-.086-.514-.069-.531-.069-.531-.051-.549-.051-.566-.034-.583-.034-1.2-.034-1.286-.017-1.371.017-1.474.052-.12.017-.1.051-.1.086-.086.1-.086.137-.051.154-.052.189v.223l-.737-.051-.668-.034-.6-.017H26.706l-.668.034Z" transform="translate(39 -29)" fill="#da251d" fill-rule="evenodd"/>
    <path id="_73482200" d="M27.512,35.842h.446l.189-.017.189-.034.189-.017.171-.051.154-.034.137-.051.12-.051.12-.069.086-.069L29.4,35.4l.069-.086.034-.069.034-.069v-.086l-.017-.069-.034-.086-.051-.069-.086-.069-.086-.069-.1-.051-.12-.051-.137-.051-.309-.1-.343-.051-.394-.051-.411-.017-.411.017-.377.051-.343.069-.291.086-.137.051-.1.069-.1.051-.086.069-.069.069-.051.069-.034.069-.017.069.017.069.017.069.051.069.069.069.086.069.1.051.12.069.137.051.308.086.36.069.394.051Z" transform="translate(39 -29)" fill="#da251d" fill-rule="evenodd"/>
    <path id="_71677992" d="M26.278,34.917l.086-.051.1-.034.12-.017.12-.034.326-.034.343-.017.24.017h.223l.188.034.171.034.154.034.1.051.034.017.034.034.017.017v.069l-.017.017-.034.034-.034.017-.1.051-.154.034-.171.034-.188.034-.223.017h-.463l-.223-.017-.206-.034-.171-.034-.137-.034-.12-.051-.034-.017-.034-.034-.017-.017V35l.017-.051Z" transform="translate(39 -29)" fill="#1f1a17" fill-rule="evenodd"/>
    <path id="_71677832" d="M32.277,49.384h.5l.051.017h.034l.017.017h.017l.017.017.051.034.051.051h0l.017.017h0l.017.017v.017l.034.069.017.068h.017v.017h0v.017h0v.034h0v.206h0v.086h0l-.017.086-.034.069-.034.068-.017.051-.034.051-.051.034-.034.034-.034.034-.051.017-.034.017-.051.017h-.1l-.051.017H32.14l.017-.034.086-1.114v-.034h.034Zm.429.908Zm-.206-.651-.069.668h.24l.017-.017h.017l.017-.017.034-.017h0l.017-.017v-.017l.017-.017.017-.034v-.017h0l.017-.017h0v-.017l.017-.068v-.274h0v-.017h0l-.017-.017h0V49.71l-.034-.017h0l-.034-.034-.034-.017H32.5Zm.686.874.1-1.114v-.034h.823V49.4l-.017.188v.034h-.566l-.017.189h.531v.034l-.017.171-.017.034h-.514l-.017.24h.583v.034l-.017.189-.017.034h-.84v-.034Zm1.8-.377h.206l.034-.017v.086l.017.034h0v.034l.017.034h.017v.017h.017l.051.017.051.017h.051l.034-.017.051-.017h0V50.31h.017l.017-.034.017-.034v-.034h0l-.017-.017h0l-.017-.017-.017-.017h-.017l-.017-.017-.034-.017h-.051l-.051-.034h-.017l-.034-.017h-.034l-.086-.051-.069-.051-.034-.068-.017-.051h0l-.017-.069V49.71l.017-.051.017-.034h0l.017-.051.017-.034h0l.017-.017h0l.017-.017h.017l.051-.051.051-.034h0l.051-.017H35.6l.086.034.069.034.051.034h0l.034.069.034.069v.171H35.62v-.051h0v-.017H35.6v-.017h0v-.034l-.017-.017h0l-.017-.017h-.034l-.017-.017H35.38l-.034.034h-.017v.017l-.017.017h0v.017h0l.017.017v.017h.017v.017h0l.069.034.086.017h0l.068.034.069.017.034.034.051.017h0l.034.034.034.017h0l.017.034.017.051h0l.017.017h0v.034h0l.017.069-.017.069h0v.051h0l-.034.068-.034.069h0l-.017.017v.017H35.74l-.017.017h0l-.051.051-.069.034h-.051l-.017.017H35.26l-.086-.034-.069-.034-.051-.051h0l-.017-.017-.017-.017L35,50.412V50.4h0l-.034-.1-.017-.12.017-.034h.017Zm1.868.548-.223-.017h-.017v-.017l-.051-.24-.36-.034-.12.24-.017.017h-.017l-.223-.017h-.034l.017-.051.566-1.08.017-.017h.017l.206.017h.034V49.5l.24,1.148.017.034h-.051Zm-.343-.531-.051-.291-.137.274.188.017Zm.446.5.171-1.1.017-.034h.017l.206.017h.017v.017l.257.686.1-.634.017-.034.017.017.189.017H38v.034l-.189,1.1v.034h-.034l-.206-.017h-.017v-.017L37.3,50.07l-.1.617v.034l-.034-.017-.188-.017h-.034l.017-.034Zm1.251.137.171-.891-.274-.034h-.034l.017-.034.034-.188v-.017h.034l.806.1H39l-.017.034-.034.189v.034l-.034-.017-.274-.034-.171.891v.034h-.034l-.206-.034h-.034l.017-.034Zm1.474.24L39.459,51h-.034v-.034l-.034-.24-.36-.051-.12.223-.017.017h-.017l-.223-.034-.034-.017.017-.034.634-1.046.017-.017H39.3l.206.034.034.017v.017L39.716,51v.034h-.034Zm-.326-.566-.034-.291-.154.274Zm1.92.377.171.12.034.017L41.465,51l-.051.086-.051.068h0l-.069.051-.069.034h0l-.017.017H41.19l-.017.017h-.034l-.1.017-.12-.017H40.9l-.034-.017h-.034l-.017-.017-.068-.034-.051-.051-.034-.051-.051-.051h0v-.017h0v-.017l-.017-.034h0l-.017-.034v-.017l-.017-.086v-.069l.017-.1.017-.086h0l.017-.034v-.034l.017-.034.017-.034.034-.086.051-.069.051-.068.069-.051.086-.051.1-.034.1-.017.1.017h.034l.017.017h.034l.017.017.051.034.051.034.051.034.034.051h0l.017.051.017.069.017.051v.1H41.55l-.206.017H41.31v-.034h0V50.5h0v-.017h0l-.017-.051-.017-.034h0l-.017-.017-.017-.017h0l-.034-.017-.034-.017h-.051l-.069.017L41,50.378h-.017l-.017.017v.017l-.017.017-.051.086-.034.12-.017.086-.017.086v.069l.017.051h.017v.034h.017l.034.051.068.017h.069l.034-.017h.034V51h.017v-.017h.017l.034-.051.034-.069.017-.034.034.017Zm1.131.771-.223-.051-.017-.017v-.017l-.017-.24-.343-.1-.137.223-.017.017-.017-.017-.223-.051h-.034L41.4,51.3l.72-.977V50.31h.034l.206.051.017.017V50.4l.069,1.183v.034Zm-.257-.6-.017-.309-.171.274Zm.48.6.274-.874-.274-.068h-.017v-.034l.051-.189.017-.017h.034l.771.223h.034l-.017.034-.051.189-.017.017h-.017l-.274-.069-.274.857v.034h-.034l-.189-.069h-.034l.017-.034Zm1.388.428-.206-.051-.017-.017v-.017l-.017-.24-.343-.1-.154.188v.017h-.017l-.223-.051-.034-.017.017-.034.737-.977H43.8L44,50.79l.034.017v.017l.034,1.2v.034l-.051-.017Zm-.24-.6v-.308l-.189.257Zm.326.6.394-1.063.017-.034.017.017.411.137h.034l.017.017h.034l.086.051.051.034h0l.017.017h0l.017.017h0l.034.069.017.051.017.051-.017.051v.051l-.017.051h0v.017l-.017.017v.017l-.017.017h0l-.051.069-.069.051h0l-.017.017h-.017l-.017.017h-.069l-.051.017.017.034.017.034h0l.017.034v.051l.017.069.017.068.034.24.017.051L45,52.366l-.24-.069-.017-.017v-.017l-.051-.274-.017-.069v-.051l-.017-.034-.017-.034h0v-.034h-.017v-.017H44.6l-.017-.017-.034-.017h-.034l-.154.411-.017.034-.017-.017-.206-.069H44.1v-.034Zm.823-.5Zm-.326-.069.1.051.069.017.051.017h.1v-.017h.017v-.017l.017-.017.017-.017h0v-.1l-.017-.017h-.017v-.017H44.91l-.034-.017-.068-.034-.137-.034-.068.206Zm.48.874.394-1.063v-.034l.034.017.188.069h.034l-.017.034-.394,1.063v.034l-.034-.017-.188-.069h-.034Zm.377.137.411-1.063v-.017H45.9l.189.068.017.017v.017l.1.737.223-.6.017-.034.034.017.171.051.034.017-.017.034-.411,1.046v.034l-.034-.017-.188-.068h-.017v-.017l-.1-.72-.223.583-.017.034-.034-.017-.171-.051-.034-.017.017-.034Zm1.834.72-.206-.086h-.034v-.034l.017-.24-.343-.137-.154.206-.017.017-.017-.017-.206-.068-.034-.017.034-.034.788-.908.017-.017h.017l.206.086h.017v.017l-.051,1.2v.051Zm-.206-.617.017-.326-.206.24.188.086Z" transform="translate(39 -29)" fill="#fff" fill-rule="evenodd"/>
    <path id="_71677208" d="M18.29,50.6,18.2,49.47v-.034h.017l.7-.051h.034v.034l.017.189v.034h-.034l-.463.034.017.206.394-.034h.034v.034l.017.189V50.1h-.034l-.394.034.034.446.017.017-.034.017-.206.017H18.29V50.6Zm.857-.069-.069-1.114v-.034H19.1l.771-.051h.017v.034l.017.188v.034h-.017l-.531.034.017.189.48-.034h.034v.034L19.9,50v.017l-.034.017-.48.017.017.257.531-.034h.034v.017l.017.189v.034h-.034l-.771.051h-.034v-.034ZM20.09,49.3h.548l.034.017h.017l.017.017h.017l.069.034.051.051h0l.017.017v.017h.017v.017h0l.051.069.034.086h0l.017.051v.069l.017.069V49.9h0v.086h0v.086l-.017.069h0l-.017.017v.034l-.017.017-.034.086-.051.069-.034.017-.034.034h0l-.034.017-.051.034h-.034l-.017.017h-.137l-.394.017h-.017v-.034l-.051-1.131V49.3h.034Zm.24.257.034.686h.154l.034-.017h.069l.017-.017.017-.017h.017v-.017l.017-.017.017-.034v-.034h0l.017-.017v-.017h0v-.171h0v-.034h0v-.034h0l-.017-.069v-.051h0l-.017-.034-.017-.017h0l-.017-.017-.017-.017-.017-.017-.017-.017-.017-.017H20.33Zm.806.874-.017-1.114v-.034h.823v.24h-.548v.206h.514v.24h-.514v.257h.583v.24h-.84V50.43Zm1.526-.7Zm-.309.017h.309v-.017h.017l.017-.017h0v-.017l.017-.017V49.59l-.017-.017h0l-.017-.017-.017-.017h-.017l-.017-.017h-.274v.223Zm1.714.771-.223-.017h-.017v-.017l-.086-.24-.36-.017-.086.24-.017.017h-.017l-.223-.017h-.257l-.017-.017-.154-.24-.034-.068-.034-.034-.017-.034-.017-.034h0l-.017-.017h0L22.472,50h-.034l-.017-.017h-.069v.48h-.24l-.017-.017V49.264h.017l.446.017h.1l.086.017.051.017h.034v.017h.017l.051.051.034.051.017.051.017.034h0l.017.051v.051h0v.069l-.017.068h0l-.017.017-.017.034-.034.051h0l-.017.017h0l-.017.017h0l-.051.034-.068.017.034.034.034.034.034.034.017.034.034.051.034.068.1.171.394-1.063.017-.017h.223l.034.017v.017l.394,1.131.017.051h-.051Zm-.411-.531-.086-.291-.1.291Zm.5.514.017-1.114V49.35h.274v.034l-.017.908.48.017h.034v.24h-.034l-.72-.017h-.034V50.5ZM7.611,53Zm-.5-.7.206-.068.017-.017.017.034.189.583h0l.017.034h0V52.9l.034.069L7.611,53h0v.017h.017l.017.034.034.017h.086l.034-.017h.017l.017-.017h.017l.034-.017.017-.034h0v-.017h0l.017-.017v-.086L7.9,52.812l-.017-.034-.017-.069-.189-.583-.017-.034H7.7l.188-.086h.034v.017l.189.566.034.086.017.086.017.068v.051l.017.034-.017.051V53l-.017.034h0v.034h0l-.017.017h0l-.017.051-.051.051h0l-.034.034-.051.017-.034.034-.069.017h0l-.017.017H7.833l-.017.017-.086.017H7.662l-.051-.017H7.576l-.034-.017-.034-.017h0l-.017-.017H7.474v-.017h0l-.051-.034-.017-.051h0l-.034-.034-.034-.069h0L7.319,53l-.034-.086L7.1,52.332v-.017l.017-.017Zm1.3.737-.326-1.08-.017-.017.034-.017.188-.069h.017l.548.5-.188-.6-.017-.034h.034l.171-.069.034-.017.017.034.326,1.08.017.017-.034.017-.189.069H9l-.531-.5.189.6v.034H8.639l-.189.069-.017.017-.017-.034Zm.96-.36L9.051,51.6l-.017-.017.034-.017.189-.068.034-.017.017.034.326,1.08.017.017-.034.017-.188.069-.034.017-.017-.034Zm.634-.223-.668-.96-.017-.034.034-.017.223-.068.017-.017.017.017.411.634.017-.771V51.2h.017l.206-.069.034-.017v.051l-.034,1.2v.017H10.25l-.206.069-.017.017-.017-.017Zm.651-.24-.274-1.1V51.1l.017-.017.737-.223h.017l.017.034.051.171V51.1l-.017.017-.514.137.051.188.463-.137.034-.017v.034l.051.189v.034h-.017l-.463.137.051.24.531-.154h.017l.017.017.034.188.017.034H11.45l-.737.223-.034.017-.017-.034Zm.926-.291-.274-1.08v-.034l.017-.017.429-.1h0l.034-.017h.034l.017-.017h.206l.069.034.051.034.034.051.017.034.017.051.017.051h0v.017l.017.017v.12l-.034.086h0v.017h-.017v.017L12.2,51.2l-.034.051-.051.034h0l.034.017.034.017.034.034.034.034h0l.051.034.034.051.171.171.034.051h-.034l-.24.068h-.034l-.206-.206-.051-.051-.034-.034-.034-.017-.017-.017h0l-.017-.017h-.017v-.017H11.81l-.034.017h-.034l.1.428v.034l-.034.017-.189.051h-.034v-.034Zm.086-.72.12-.034.068-.017.051-.017h0l.034-.017.017-.017h.017v-.017L12,51.064h0v-.017h0v-.034h0V51h0v-.034l-.017-.017-.017-.017h0l-.017-.017h-.068l-.051.017-.068.017-.137.034.051.223Zm.806.068.189-.068.017-.017.017.034.017.034.034.051h0l.017.017.017.017H12.8v.017h.137l.017-.017h.017l.051-.017.017-.034h0l.017-.034v-.017l.017-.017-.017-.034h0v-.034h-.017l-.017-.017h0l-.034-.017h-.274L12.7,51.1l-.086-.017-.069-.017h0l-.017-.017-.017-.017H12.5l-.017-.017-.051-.086-.034-.086h0l-.017-.051v-.034l.017-.051v-.051h0v-.017h.017V50.6l.051-.051L12.5,50.5h.017l.034-.034.051-.017.051-.017.051-.017.1-.017.069-.017.086.017.069.034h0l.051.034.051.051h0l.034.069.034.086v.017l-.017.017-.206.051-.034.017v-.034h0l-.017-.017h0V50.7l-.034-.034-.017-.017h0l-.017-.017h-.068l-.034.017h-.034v.017l-.051.017-.017.017h0v.017h-.017v.034l.017.034.017.017h.017l.017.017h.291l.051.017.051.017h.034l.051.034.034.017.034.034h0v.017h.017v.017h0l.034.069.034.068h0v.017h0v.034h0v.017h0v.069l-.017.068-.017.051-.034.051h0l-.017.034-.051.034-.034.034-.051.034-.069.017-.051.017h0l-.1.017h-.171l-.069-.034h0l-.017-.017-.017-.017H12.6l-.017-.017-.069-.1-.051-.12-.017-.017.034-.017Zm1.028.154-.24-1.114v-.034H13.3l.189-.051h.034l.017.034.223,1.1v.034h-.017l-.206.051h-.034v-.017ZM13.7,50.19l.377-.086.069-.017h.188V50.1l.069.017.069.034h0v.017h.017l.017.017v.017l.051.051.051.068h0v.017l.017.017v.017l.017.017.017.086.034.12h0v.051l.017.017v.171h0l-.017.068-.017.051-.017.068-.034.051-.017.034-.034.034-.034.034L14.5,51.2l-.051.017-.034.017-.051.017-.051.017-.377.086H13.9v-.034l-.223-1.1V50.19H13.7Zm.291.188.12.686.12-.034h.051l.017-.017h.034L14.347,51h0l.017-.017h.017l.017-.017.017-.017h0v-.017l.017-.017h0v-.068h0v-.034h0v-.086l-.017-.086h0V50.6h0l-.017-.034h0l-.017-.069-.017-.051h0l-.017-.017h0l-.034-.034-.017-.017-.017-.017-.017-.017h-.12l-.034.017h-.069l-.051.017Zm1.851.583L15.616,51l-.017.017-.017-.034-.1-.206-.36.051-.051.257V51.1H15.05l-.223.051h-.034V51.1l.223-1.183V49.9h.017l.223-.034h.017l.017.017.566,1.046.034.034h-.051Zm-.5-.429-.137-.274-.051.308.188-.034Zm.463-.771.377-.051h.051l.051-.017h.051l.051.017h.034l.017.017.069.017.051.051h0l.017.017h0l.017.017h0l.051.069.034.068H16.7V50h0l.017.017v.017h0l.017.1.017.1h0l.017.069v.068h0V50.4h0v.034h0v.034l-.017.034v.051l-.034.068-.017.051-.034.051h0l-.017.034-.034.034-.051.017-.034.034h-.017l-.017.017h-.017l-.069.017-.069.017-.377.051h-.034v-.034L15.77,49.8v-.034H15.8Zm.669.463Zm-.411-.24.086.668.12-.017h.086l.017-.017h.017L16.4,50.6h.017l.017-.017.017-.017h0l.017-.017v-.017h0l.017-.034v-.034h0V50.43h0v-.017h0v-.154h0l-.017-.034v-.017l-.017-.068-.017-.051h0V50.07h0l-.017-.017h0l-.017-.034-.034-.034h-.017l-.017-.017h-.017l-.034-.017h-.051l-.051.017H16.13l-.068.017Zm.874.771-.1-1.131V49.59h.017l.754-.068h.034v.017l.017.189v.034h-.017l-.531.051.034.188.48-.034.017-.017v.034l.034.188v.034h-.034l-.48.051.017.24.548-.051h.017l.017.034.017.189V50.7h-.034l-.771.069h-.034v-.017Z" transform="translate(39 -29)" fill="#fff" fill-rule="evenodd"/>
    <path id="_71676856" d="M9.839,18.7l-.12.514-.12.531-.12.531-.086.446-.034-.017-.017-.017-.034-.069V20.57l-.017-.034-.017-.017h-.12l.034-.1.034-.12.017-.137v-.137l-.017-.137-.017-.12-.034-.12-.051-.1-.086-.154-.1-.137-.1-.1-.1-.12-.24-.206L8.279,18.6l-.12-.12-.12-.1L7.9,18.307l-.137-.034-.12-.034-.1-.051-.12-.051-.1-.068-.086-.051L7.148,18l-.086-.017H6.994l-.171.034-.154.069-.086.017L6.5,18.084l-.12-.034-.1-.034-.24-.086-.24-.068H5.777v.017h.017l.223.1.206.12.206.1.188.12.343.257.291.257.274.257.24.274.223.274.206.257.137.171.24.257.206.257.1.137h.1v.017l-.017.017-.069.034-.069.034-.034.017-.034.017-.017.017v.069l.034.017L8.811,21l.034.017.068.017.069.051.051.086.017.1.017.034.017.051.017.017.034.017.034-.017.034-.017.034-.034.017-.051.034-.086.051-.086-.034.36-.051.36-.034.36-.051.343-.034.36-.034.343-.051.343-.034.343H8.982l-.051.017H8.879l-.034.034-.017.051-.034.051-.017.051-.017.051-.034.034-.034.034L8.656,24.2l-.017-.034V24.1l.017-.069.017-.154.034-.188.034-.189v-.257l-.017-.086-.034-.051-.034-.051L8.571,22.9l-.1-.154-.12-.12-.137-.12-.257-.223-.223-.257-.12-.1-.137-.1-.154-.086-.137-.069-.24-.1-.257-.12L6.6,21.409l-.086-.017-.086-.017H6.342l-.171.034-.188.051-.086.017H5.811l-.12-.017-.12-.034-.274-.1-.274-.1H5.005v.017l.017.017.257.1.24.12.223.137.223.12.189.137.189.137.171.137.171.137.291.291.274.308.257.291.223.291.171.206.171.206.171.206.171.189.034.034.017.034h.017l-.017.034v.069l.034.017.034.034.051.017.086.034.086.051.068.188.086.171-.051.428-.051.429-.034.411-.034.428-.051.411-.034.411-.034.411-.034.411-.034-.034-.034-.017L8.5,28.18l-.017-.086-.017-.017-.034-.034H8.262l.051-.137.034-.12.017-.1v-.1l-.017-.086-.017-.068L8.3,27.357l-.051-.051-.1-.12-.12-.137-.1-.137-.12-.154-.068-.137-.12-.12-.12-.12-.154-.086-.171-.086-.137-.086-.137-.1-.12-.1-.1-.086-.12-.069-.137-.051-.137-.017-.171.034-.171.017-.189-.017-.171-.017-.24-.034-.24-.069-.223-.051-.24-.086-.069.017-.034.034.017.034.051.034.257.1.24.1.24.1.206.12.206.12.206.12.171.137.171.12.309.274.291.274.274.274.24.291.171.171.171.189.171.171.171.171v.034l-.017.017-.034.017-.051-.017-.171-.171-.154-.171-.171-.171L7.336,27.7l-.257-.274-.257-.274-.274-.274L6.239,26.6l-.171-.12L5.9,26.346l-.206-.12-.189-.12L5.28,26l-.223-.1-.24-.1-.257-.1H4.508l-.017.034v.051l.034.051.051.137.068.137.051.12.051.137.034.137.034.12.017.137.017.137.034.154.034.137.017.154.017.154.068.1.086.069.1.068.12.051.823.171.1.051.1.086.051.086.051.12v.171l.017.154.017.051.034.051.034.051.051.034.154.051.154.1.154.069.137.051.154.017.137.017.069-.051.051-.051.051-.069.034-.069.086-.154.1-.12.068-.034h.051l.034.017.017.034.034.034v.051l.051.1.034.12.017.051.017.051.034.034h.086l.034-.034.017-.051.034-.051.051-.12.051-.086h.017v-.017l-.017.429-.034.411-.017.411-.034.411-.017.411-.017.394-.017.411v.394l-.069-.051L8.314,31.9,8.3,31.848l-.017-.034-.017-.051-.017-.017-.069-.017h-.1l-.051-.017-.034-.051-.051-.086-.017-.1-.017-.12L7.885,31.2v-.5l-.017-.1-.034-.086-.051-.086-.069-.069-.069-.051-.1-.034-.12-.034L7.336,30.2l-.086-.051L7.182,30.1l-.069-.051-.051-.069-.051-.069-.051-.086-.051-.086-.068-.086-.069-.086L6.7,29.517l-.068-.051-.069-.051-.086-.034-.086-.017-.086-.017-.137-.034-.12-.034-.137-.086-.137-.086-.086-.034-.1-.017L5.5,29.037H5.314l-.086.034-.1.017-.086.051h-.1l-.12-.017-.12-.017-.12-.034L4.3,28.986l-.291-.12H3.96l-.017.017v.069l.034.069.291.1.274.12.24.1.24.137.223.12.223.137.189.137.189.154.36.291.309.291.291.308.274.309.188.206.189.206.206.188.206.189.017.034v.051l-.017.017-.051-.017-.069-.017L7.559,31.9l-.188-.189-.189-.206L6.994,31.3l-.274-.291L6.445,30.7l-.308-.291-.343-.291-.188-.137-.189-.137-.223-.137-.206-.137-.24-.12-.257-.1-.257-.12-.291-.1H3.908l-.034.017.017.051.017.069.069.137.051.137.069.137.051.154.051.137.034.137.017.137.017.154v.154l.017.154.034.171.051.154.068.1.086.086.12.069.12.051.223.069.223.051.223.034.223.034.069.034.051.017.051.034.051.051.034.051.034.051.017.068.017.069-.017.086-.017.069.017.068.017.069L6,32.26l.051.068.034.051.051.051.1.017.086.034.086.051.069.069.069.051.086.051.068.034.086.034.068.017h.154l.086-.017.069-.068.051-.051.051-.068.051-.086.034-.086.034-.068.051-.069.069-.051h.137l.12.051.069.034.034.034.034.017.017.034.051.1.017.12L8,32.671l.017.051.034.034h.086l.034-.034.034-.051.034-.051L8.3,32.5l.051-.086.017-.017.017-.017v1.851l.017.36.017.36.017.343-.051-.034-.051-.034L8.3,35.157v-.068l-.017-.034-.034-.017-.051-.017H8.108l-.051.017-.034.017L8,35.088l-.034.051-.034.086-.034.086.034-.206.017-.189v-.154l-.017-.12-.034-.12-.034-.086-.051-.086L7.765,34.3l-.154-.1-.137-.12-.137-.137-.1-.171-.051-.086-.069-.068-.068-.069-.069-.051-.137-.1-.171-.068-.154-.051L6.359,33.2l-.154-.1L6.034,33l-.12-.1-.137-.051-.154-.034H5.485L5.3,32.86l-.171.034-.189.017H4.748l-.257-.017-.274-.034-.257-.051L3.7,32.757H3.668l-.034.017-.017.034v.1l.034.017.017.017.309.069.274.069.257.086.257.086.24.1.223.086.206.12.206.1.394.24.343.257.326.257.309.257.223.171.206.171.206.154.223.154.017.051v.034H7.834l-.086-.034-.206-.137-.189-.154-.206-.171-.206-.154-.308-.257-.326-.257-.343-.24-.377-.24-.188-.1-.223-.12-.223-.086-.223-.1-.257-.086-.257-.086-.274-.068-.291-.051H3.617v.051l.017.034.068.137.069.137.086.137.069.12.068.137.051.154.051.137.017.137.017.154.034.154.051.154.068.154.086.1.1.068.12.051.12.051.223.034.223.034.223.017h.223l.086.017.086.017.051.017.051.051.051.034.017.051.017.068.017.086-.017.1v.1l.017.086.034.069.034.051.034.051.051.017.051.034.188.051.171.069.154.068.154.034.171.017.154-.017.069-.034.051-.051.051-.086.017-.1.034-.1.034-.086.051-.069.051-.051.069-.051.086-.034h.086l.086.017.034.017.017.034.051.086.034.12.017.051.017.051.017.034.051.017.034-.017.034-.034.034-.034.034-.068.051-.1.051-.1.051-.034.051-.017.017.411.034.429.051.411.034.411.051.411.051.411.069.411.068.394-.068-.034-.051-.051-.017-.051-.017-.068-.017-.017L8.622,38.7l-.034-.017H8.519l-.069.017-.034.017-.034.034v.034l-.017.069-.017.068-.051.034-.051.017v-.137l.017-.171v-.154l-.017-.154-.017-.137-.034-.137-.051-.12-.069-.086-.154-.1-.137-.12-.12-.137-.137-.171-.12-.137-.12-.12-.154-.1-.171-.069-.154-.051-.171-.051-.154-.1-.154-.1-.137-.086-.137-.069L5.9,36.442H5.759l-.188.051-.189.034-.171.017-.189.017-.257-.017-.257-.034-.274-.034-.257-.051H3.942l-.017.017-.017.017-.017.034v.034l.017.034.017.034.034.017.291.051.291.069.257.086.257.086.24.1.24.1.206.1.206.12.394.24.343.24.326.257.326.257.206.188.206.171.206.189.223.154.017.017.017.034V39.1l-.017.017-.017.017H8.125l-.034-.017-.223-.171-.189-.171L7.474,38.6l-.206-.188-.308-.24-.326-.257-.36-.257-.377-.24-.206-.1-.206-.1-.223-.1-.24-.1-.24-.086-.274-.068-.274-.086-.291-.051H3.891l-.017.017.017.034.034.051.086.137.086.137.069.12.051.137.068.154.051.137.034.137.051.12.051.171.034.171.034.137.051.137.086.1.1.086.12.051.12.017h.24l.24.017.223.034.206.034.171.051.1.069.051.051.017.051.017.051.017.051v.24l.034.069.034.069.034.051.051.051.068.034.086.017.1.017.086.034.086.051.171.051.154.034.154.017.154-.017.068-.069.051-.068.034-.069.034-.086.034-.086.034-.086.051-.069.051-.069.086-.034.1-.034.1-.017.1-.017.051.034.034.034.034.068.034.1v.051l.017.034.034.034.034.017.034-.017.034-.034.034-.034.017-.034.051-.1.034-.086.068-.051.069-.034.12.6.137.6.154.583.171.583h0l-.034-.017L9.376,41.5l-.154-.1-.137-.12-.137-.137-.1-.171-.12-.137-.137-.12-.154-.1-.154-.068-.189-.051-.154-.068-.154-.086-.154-.1-.12-.086-.12-.051-.154-.034H7.079l-.189.051-.189.034-.188.017-.171.017-.257-.017-.274-.034-.257-.034L5.3,40.042H5.262l-.034.017-.034.034v.086l.017.051.017.034.034.017.309.051.291.068.274.086.257.086.24.086.24.1.223.1.206.12.394.24.36.257.326.257.309.274.171.137.189.12.188.1.189.1.017.051-.017.051L9.41,42.6H9.342l-.171-.1-.189-.12-.189-.12L8.622,42.1l-.308-.257-.326-.257-.343-.257-.394-.24-.206-.1-.223-.12-.223-.1-.24-.086L6.1,40.591l-.274-.069-.274-.069-.308-.068H5.228l-.017.017.017.017.017.017.069.12.086.12.068.137.069.154.206.548.051.154.051.154.051.154.017.154.1.1.12.069.1.068.12.017.1.051.12.017H6.7l.1-.017h.343l.1.034.12.051.1.086.051.051.017.051.034.068v.069l.034.154.051.154.034.051.034.034.051.034.068.034h.086l.086.017.1.034.086.068.154.051.154.034.171.017.154-.017h.034l.034-.034.034-.017.017-.051L9,43.333l.034-.1.069-.154.086-.154.086-.069.12-.069.051-.017H9.5l.034.034.034.034.034.086.017.1.017.034.017.051.017.017.034.017.034-.017.034-.017.017-.017.017-.051.051-.069.034-.086.206.548.24.549.24.531.274.531-.069.154-.1.12-.017-.12-.017-.1-.051-.1-.051-.1-.069-.086-.068-.086-.1-.086-.1-.051-.171-.051-.171-.051-.171-.069-.188-.1-.171-.069-.154-.051-.189-.034H8.811l-.189.017H8.451l-.189-.017-.171-.034-.137-.034H7.8l-.137.034-.154.069-.137.137-.154.1-.154.1-.171.069-.274.068-.24.069-.257.086-.24.069-.034.034v.051l.034.051.034.017.309-.069.291-.051.274-.051.257-.017.257-.017h.5l.24.017.446.051L8.913,45l.411.086.394.1.206.051.223.051.206.051.206.051.034.034-.017.034-.034.017h-.086l-.189-.051-.188-.034-.189-.051-.206-.051-.377-.1L8.9,45.1l-.411-.069-.446-.069-.24-.017h-.48l-.257.017L6.805,45l-.274.034-.291.051-.291.086-.034.017v.034l.017.034.051.034.5.36.12.086.1.1.086.12.086.12.086.137.1.137.1.1.12.1.12.034.137.034H7.8L8,46.573l.223-.069.206-.086.206-.086.086-.017h.12l.068.017.051.017.051.034.051.034.051.051.034.086.034.086.051.051.051.068.051.034.068.034.051.017.068.017.1-.034.086-.017h.1l.086.017h.154l.154-.034.154-.051.154-.1.051-.068.017-.086V46.4l-.017-.086-.017-.12V46.11l.017-.086.034-.051.188-.154.017.086.034.069.017.034.017.017.017.017.034.017.034-.017.051-.034.034-.051.017-.051.069-.137.051-.086.291.5.274.463.291.446.291.429.308.428.309.411.343.411.377.429.24-.069.257-.051.24-.051.257-.051-.429-.377-.377-.394-.377-.377-.343-.394-.326-.411L12.5,46.59l-.309-.463-.308-.514.086-.154.086-.154.069-.051.068-.034.051-.034.034-.069.051.051.051.051.017.017.034.034.017.034v.051l.017.017.034.017h.137l.086-.034.069-.017.086-.051.069-.034.12-.086.137-.034.086-.086.069-.069.017-.051.017-.051.017-.051V44.7l.017-.051.017-.051.017-.034.086-.069.086-.051.189-.017.171-.034.171-.017.154-.051.1-.034.086-.051.068-.069.069-.068.051-.12.034-.12.017-.12v-.137l.017-.1.017-.12.034-.1.051-.1.12-.223.086-.206L15.1,42.7v-.051H15.05l-.223.069-.206.1-.189.086-.189.1-.326.206-.291.223-.274.223-.24.24-.223.24-.206.223-.137.154-.12.137-.137.137-.12.12-.051.034-.034-.017-.017-.034.017-.034.137-.137.12-.137.137-.137.12-.137.223-.24.24-.24.24-.24.274-.24.291-.223.343-.206.188-.1.189-.1.206-.086.223-.086.051-.034v-.069H15.05l-.017-.017L15,42.442l-.189.069-.223.051-.206.034-.189.017-.154-.034-.137-.017-.137-.017-.154.017-.189.086-.223.069-.12.051-.12.051-.12.086-.12.1-.1.1-.086.086-.12.1-.12.069-.1.086-.1.1-.1.12-.068.137-.051.171-.017.188-.017.206.017.223h-.017l-.034.017h-.034l-.034.034-.034.034-.017.034-.034.086-.051.086-.034.034-.069.017-.291-.566L10.9,43.8l-.257-.583-.24-.583h.017l.034.017.034-.017.051-.034.017-.051.034-.051.051-.1.051-.1.137-.068.086-.086.051.137.051.12.034.034.034.034.034.034H11.3l.12-.017.12-.034.137-.051.137-.069.12-.051.086-.069.051-.086.017-.12v-.171l.017-.051.017-.034.034-.034.086-.069.12-.051.154-.034.171-.017.189-.017.171-.034.12-.034.086-.051.069-.068.051-.086.051-.223.051-.24.051-.223.068-.24.086-.206.12-.223.017-.017h0v-.017H13.8l-.223.069-.206.051-.189.086-.188.069-.343.171-.308.188-.274.189-.257.206-.257.206-.223.206-.154.137L11,41.568l-.154.12-.154.137h-.034l-.017-.034-.017-.034.017-.034.154-.12.154-.12.154-.137.154-.137L11.5,41l.24-.206.274-.206.291-.189.309-.188.343-.171.189-.086.188-.068.223-.069.206-.051.051-.051v-.051l-.034-.051-.051-.034-.1.017-.1.017-.1.017-.1.034-.206.069-.189.017h-.291l-.137-.017-.154-.034h-.1l-.1.034-.1.051-.1.086-.1.086-.12.069-.12.069-.137.051-.12.069-.12.086-.1.1-.086.12-.086.12-.086.12-.1.1-.1.086-.051.068-.034.069-.017.086v.086l.017.171.034.171h-.086l-.068.017-.051.017-.034.051-.051.1-.051.1-.051.017-.051.034-.1-.343-.12-.343-.1-.326-.086-.343-.1-.36-.086-.343-.086-.343-.069-.36.051-.12.069-.1.051-.034h.1l.068.017L9.788,39l.051.051.034.069.034.086.017.069.034.068.051.051.069.034.137.017.137-.017.137-.051.12-.069.068-.034.086-.034.068-.034.069-.017.051-.017.034-.017.034-.034.034-.051.017-.051v-.343l.017-.051.034-.051.034-.034.086-.069.12-.034.771-.12.12-.034.1-.051.034-.034.034-.034.034-.051.017-.051.017-.137.034-.137.034-.12.034-.137.137-.48.034-.12.051-.12.068-.12.069-.12.017-.034v-.017l-.017-.017-.017-.017-.223.086-.206.068-.206.086-.188.086-.343.189-.308.189-.291.223-.257.223-.257.206-.24.223-.171.171-.189.171-.188.171-.206.137v.017H9.616L9.582,38.7v-.017l.017-.034.189-.154.188-.154.206-.171.189-.189.24-.223.24-.223.274-.223.291-.206.326-.206.343-.189.188-.1.206-.069.206-.086.223-.069.034-.034v-.051l-.017-.051-.051-.017-.12.034-.24.069-.12.034-.137.034-.137.017L12,36.408l-.154-.017-.154-.034-.086-.017H11.45l-.086.017-.223.1-.24.086-.137.051-.137.069-.137.086-.12.1-.223.206-.24.188-.12.1-.1.12-.1.12-.1.137-.051.171-.034.171v.171l.034.171H9.273l-.034.034-.1-.6-.086-.583-.086-.6-.069-.6.034.017.034.017.051-.017.034-.017.034-.051.017-.051.051-.12.069-.086.051-.069.051-.051.069-.017.051-.034H9.6l.069.017.086.034.051.051.051.051.034.068.017.086.017.069.034.069.051.051.069.051h.154l.154-.017.137-.034.137-.069.069-.051.086-.034.068-.034.086-.017.051-.017.051-.034.034-.051.017-.051.017-.137v-.24l.017-.051.034-.051.034-.034.034-.051.051-.017.069-.034.068-.017.086.017h.309l.206-.051.188-.086.1-.051.086-.068.1-.069.086-.069.051-.154.034-.137.034-.137v-.137l.017-.137.017-.12.051-.12.051-.137.1-.257.137-.223-.257.069-.24.069-.223.086-.223.086-.189.1-.188.086-.189.1-.171.12-.309.223-.291.24-.274.223-.257.24-.188.171-.189.171-.171.171-.206.154-.034.017H9.462l-.017-.017v-.034L9.5,35.38l.188-.154.189-.154.188-.171.171-.171.274-.24.274-.24.291-.24.309-.223.171-.1.188-.12.189-.1.206-.086.223-.086.223-.086.24-.086.257-.069.051-.034.034-.051v-.086l-.017-.034-.017-.034-.051-.017h-.051l-.24.1-.223.051-.223.034H12.1l-.154-.051-.154-.034-.086-.017-.086.017h-.1l-.086.034-.12.069-.12.068-.12.034-.12.017-.154.034-.154.069-.12.1-.12.12-.1.137-.12.12-.12.086-.137.086-.1.034-.086.051-.068.051L9.6,34.06l-.034.068-.051.069-.017.086-.017.086v.24l-.017.24-.034.223-.034.257-.051.017H9.273l-.034-.017L9.2,35.26l-.017-.069-.017-.069-.017-.034-.034-.017-.051-.017-.1.017-.051.017-.034.034-.034.051-.017.051-.034-.411L8.776,34.4l-.017-.411-.017-.411-.017-.411V31.917l.137.069L9,32.054l.034.1.034.12.017.051.017.051.034.034h.086l.034-.034.051-.034.034-.051.051-.12.034-.1.017-.051.051-.034.051-.017.068-.017-.051.086-.017.069.017.086.017.086.086.034.086.034h.086l.1-.017h.051l.034.017.034.034.017.034.034.069v.1l.017.1.017.086.034.034.034.017H10.3l.137-.068.137-.051.137-.017.137.017.1.017.086-.017.069-.051.069-.086.068-.223.086-.24L11.4,32l.069-.086.086-.086.086-.051.206-.034.206-.034.188-.034.206-.017.12-.034.086-.051.086-.086L12.8,31.4l.051-.154.034-.137.034-.137.017-.137.051-.257.086-.257.1-.24.12-.24v-.051l-.24.069-.223.069-.223.086-.206.086-.36.189-.343.206-.291.223-.291.223-.257.24-.24.223-.188.171-.189.171-.189.154-.188.154-.051.034H9.771v-.051l.051-.051.188-.154.171-.154.189-.171.188-.171.257-.24.257-.223.291-.24.291-.223L12,30.2l.377-.189.206-.086.223-.086.223-.086.24-.069.051-.017.034-.034.017-.051v-.034l-.017-.034-.034-.017-.034-.017h-.051l-.12.051-.1.051-.1.034-.12.017-.24.034h-.24l-.171-.051-.171-.017H11.81l-.171.017-.223.1-.257.086-.171.069-.137.068-.137.086-.1.1-.257.24-.223.188-.137.12-.1.12-.1.12-.1.137-.034.086-.034.086-.017.086-.017.086v.188l.017.086.034.1-.051-.034-.069-.017-.034-.034-.034-.017-.017-.051-.017-.034-.034-.068-.017-.086V31.42l-.034-.034H9.171l-.051.017-.034.017-.017.034-.017.051-.034.086-.051.069-.12.069-.12.068V31.42l.017-.377v-.377l.017-.377.017-.377.017-.377.017-.377.017-.377.069.034.069.034.034.1.034.12.017.051.017.051.034.034h.086l.034-.034.034-.051.017-.051.051-.12.069-.086.034-.034.034-.034.051-.017.051-.017.086-.017h.086l.086.017.086.051.1.12.069.137.034.086.034.069.051.051.068.034.137.017h.137l.137-.051.137-.086.086-.051.069-.034.086-.034.086-.017.034-.034.051-.034.034-.051.017-.051.017-.137v-.154l.051-.12.086-.086.086-.068.1-.051.189-.017.206-.017.206-.034.189-.051.12-.034.086-.069.086-.069.086-.086.034-.137.017-.137.034-.154.034-.137.051-.257.086-.24.1-.257.12-.24.034-.034v-.017l-.017-.017H13.25l-.223.069L12.8,26.4l-.223.086-.189.086-.377.188-.326.206-.308.223-.274.223-.257.223-.24.24-.189.171-.188.171-.189.154-.189.154L9.8,28.54l-.017.017-.034-.017h0v-.051l.034-.051.206-.137.171-.171.188-.154.189-.171.24-.24.274-.223.274-.24.309-.223.343-.206.377-.188.189-.1.223-.068.223-.086.24-.069.017-.017.017-.034v-.069l-.017-.017-.017-.034-.017-.017H13.2l-.257.086-.24.051-.223.034-.206.017H12.1l-.154-.017-.171-.017-.171-.017-.12.017-.12.034-.12.069-.12.068-.137.1-.137.068-.137.086-.137.069-.137.069-.12.1-.12.12-.1.137-.137.1-.12.12-.1.137-.086.137-.034.1-.017.137v.686l-.034.069-.051-.034-.051-.017-.051-.051-.034-.051L9.342,28.3l-.017-.069v-.017l-.034-.034H9.136l-.051.017-.034.017-.017.034-.017.034-.034.1-.051.069-.034.034-.051.017.034-.446.034-.446.034-.446.034-.446.051-.446.034-.446.051-.446.051-.446.1.034.086.069.051.086.034.12.017.051.017.051.017.034.051.017.034-.017.051-.034.034-.034.017-.051.051-.12.051-.1.051-.051.069-.017.086-.017h.086l.086.034.086.034.1.12.069.154.034.069.034.051.051.069.069.051h.137l.154-.017.137-.034.12-.069.069-.051.068-.034.086-.034.086-.017.051-.034.034-.034.034-.034.017-.051.034-.137v-.24l.017-.034.017-.051.034-.034.1-.086.137-.051.206-.034.189-.017.206-.017.206-.051.086-.051.1-.051.086-.069.086-.1.051-.12.034-.137.017-.154.017-.154.017-.12.034-.137.051-.12.034-.12.137-.24.1-.257.017-.017v-.034h0l-.034-.017-.24.069-.223.086-.206.086-.206.086-.377.189-.326.206-.309.223-.274.223-.257.24-.257.223-.188.171-.189.171-.189.154-.188.154-.034.017-.034.017h-.017l-.017-.017v-.034l.051-.051.188-.154.189-.154.188-.171.171-.171.257-.24.257-.223.291-.24.309-.223.343-.206.377-.188.206-.1.206-.068.24-.086.24-.069.034-.034.017-.017v-.069l-.017-.017-.017-.034-.034-.017h-.034l-.223.086-.24.051-.223.034-.223.017-.171-.051-.171-.017-.154-.017-.171.034-.291.1-.274.137-.274.137-.257.171-.257.189-.223.206-.1.1-.1.12-.1.137-.086.12-.017.069-.034.051-.017.069v.069l-.017.137.017.154.017.12.017.12v.086l-.034.034-.034-.017-.051-.017L9.8,24.6l-.034-.034v-.086l-.017-.069-.017-.017L9.7,24.375l-.069-.017H9.548l-.051.017-.034.017-.017.034-.034.051-.017.086-.051.086-.069.034-.086.034L9.2,24.6l.069-.051.069-.034.034-.017.017-.017.017-.034v-.051l-.017-.069-.034-.051-.051-.034-.069-.051.051-.377.051-.377.034-.377.051-.394.051-.377.051-.377.034-.377.051-.394.086.034.068.051.034.069.034.1v.051l.017.034.034.017.034.017.034-.017.017-.017.034-.034.017-.051.034-.086.051-.069.068-.051.069-.034-.017.086-.017.086-.017.034v.068h.12l.086.017.1.017.086.017.069.051.051.069.034.068.017.086v.12l.034.086.017.034h.12l.137-.051.154-.051.137-.017h.24l.086-.017.069-.051.051-.069.171-.48.051-.1.069-.086L12.187,21l.1-.051.788-.12.154-.034.1-.051.034-.051.034-.034.034-.051.017-.051.12-.566.137-.5.034-.137.051-.12.069-.12.086-.12v-.017h-.017l-.24.068-.223.069-.206.086-.206.086-.377.189-.326.223-.308.206-.291.24-.257.223-.24.24-.189.171-.189.171L10.7,21.1l-.189.154-.051.017-.017.017-.034-.017h0v-.051l.034-.051.206-.137.171-.171L11,20.707l.189-.171.257-.24.257-.24L12,19.832l.308-.223.343-.223.377-.189.206-.086.206-.086.24-.069.24-.086.051-.017.017-.051L14,18.77v-.051l-.017-.034-.034-.017-.034-.017h-.051l-.24.1-.223.069-.12.017-.1.017h-.12l-.1-.017-.171-.034-.171-.017-.171-.017-.154.017-.24.069-.257.12-.206.1-.206.137-.206.12-.189.154-.189.154-.171.171L10.473,20l-.154.223-.034.051-.034.086-.017.068-.017.086v.206l.017.12.034.137-.086-.069-.086-.069-.017-.051-.017-.069v-.017l-.034-.017-.034-.017-.069.017H9.873l-.017.017-.017.034-.017.034-.034.068-.034.069-.051.034-.051.017.069-.531.069-.531.068-.531.069-.531h.017v.017l.051-.017.034-.034.034-.051L10.1,18.7l.051-.1.051-.1.068-.051.069-.034.034-.017.034-.034.017-.034v-.086L10.4,18.2l-.034-.034-.034-.034-.086-.068-.069-.051-.034-.068V17.9l.069.034.069.069.034.017.051.017h.051l.051-.017.12-.086.1-.1.086-.1.1-.12.086-.137.1-.137.017-.069.017-.051v-.069l-.017-.051-.051-.12-.086-.12-.034-.034-.017-.051v-.1l.051-.12.086-.137.137-.154.154-.137.154-.12.154-.12.051-.051.051-.034.034-.051.017-.051.017-.12-.017-.12-.034-.137-.034-.12-.069-.137-.068-.137-.086-.257-.068-.24-.017-.137-.017-.137L11.382,14l-.017-.137v-.034l-.017-.017h-.034l-.154.223-.12.206-.12.189-.1.206-.086.206-.086.189-.069.188-.069.189-.086.377-.069.36-.051.343-.051.343-.034.257-.034.24-.034.257-.051.24-.051-.017H9.993v-.017l.051-.223.051-.257.034-.24.017-.24.051-.36.051-.343.086-.377.086-.377.069-.189L10.559,15l.086-.206.086-.206.1-.206.12-.206.137-.206.154-.223.017-.034v-.068l-.017-.017-.034-.017-.034-.017-.034.017-.034.017-.171.137-.171.171-.171.171-.154.171-.137.12-.154.086-.154.069-.137.051-.086.017-.051.051-.051.034-.051.051-.017.069-.034.051-.017.068v.069l-.034.154-.069.137-.086.137-.1.154-.086.154-.051.154-.034.154v.154l.017.171-.017.171-.034.154L9,16.867l-.034.189-.017.154.034.154.051.137.086.137.12.12.154.1.171.086h.086l.086-.034.086-.051.086-.069.017-.017.034.034H9.942l-.034.017-.034.017-.034.034-.017.051-.034.086-.051.086-.068.051-.1.034-.034.017-.034.017-.017.034v.034l.017.051.051.034.051.017.069.034.051.017.051.051.051.086.017.12ZM9.616,42.116l.017.069.034.086-.12.068-.017-.017.051-.069.051-.137Zm16.3-4.577L23.244,42.75l.188.309,2.777-5.434-.154-.034-.137-.051ZM18.684,27.477l-.017-.1-.034-.086h.206l.069.171.034.154.137.069-.034-.206-.034-.189h.137l.069.1.051.137.051.154.034.137.12.051-.051-.223L19.4,27.46h.12l.069.1.051.137.051.154.034.137.051.017L19.73,27.8l-.017-.189h.137l.051.1.069.154.051.137.034.137.051.034-.051-.223-.017-.206h.137l.069.12.051.154.051.154.034.137.051.017-.051-.5.051-.034.051-.034.086.171.068.171.051.171.034.188.069.051-.137-.566h.154l.051.068.034.086.034.086.034.086.051.188.034.171.017.034-.137-.686h.154l.069.086.034.1.051.1.017.12.051.223.034.189.034.017-.12-.617h.137l.086.154.068.206.034.206.034.188.051.017-.137-.7h.137l.051.086.051.086.034.12.017.12.051.223.034.206-.24-.12.154.086.154.086-.137-.7h.154l.051.086.034.086.034.12.034.12.051.223.034.206.017.017-.137-.788h.171l.051.1.051.1.034.12.034.137.051.257.034.24.068.051-.154-.857h.171l.068.1.051.137.034.12.051.154.051.274.034.257h.017l-.017-.926.086.017h.1l.034.12.034.137.017.137.017.154v.549l.017.017.154-.96.086.017.086.034.017.12.017.137v.137l-.017.154-.034.274-.051.257.034.017.137-.943.086.034.086.017.017.12.017.137v.137l-.017.154-.034.274-.051.257.034.017.137-.908.086.034.086.034.034.1v.411l-.051.274-.034.257.069.051.12-.891.086.034.1.034.017.1v.394l-.034.274-.051.24.069.051.137-.891.086.034.086.034.017.12.017.12v.137l-.017.137-.034.274-.051.257.034.034.137-.857.086.017.086.034.017.12.017.12v.137l-.017.137-.034.274-.034.24.034.034.1-.72.086.017.069.034.034.086v.343l-.034.24-.034.223.017.017.1-.72.086.017.086.034.017.1v.326l-.034.24-.034.223.051.051.1-.72.086.034.086.017.017.1v.343l-.034.257-.034.223.017.017.12-.686.068.034.086.017.034.206-.017.24-.017.24-.034.223.017.017.1-.634.086.034.068.034.034.189v.206l-.034.223-.034.223.051.051.1-.634.086.017.069.034.017.086.017.1v.1l-.017.12-.017.223-.051.223.017.017.086-.583.086.034.086.017.017.189v.188l-.034.223-.034.206.034.034.086-.583.1.086.086.086.017.171-.017.171L27,33.477l-.051.189.017.034.188-.566.069.051.051.051v.171l-.017.188-.051.189-.051.171.034.069.1-.549.12.154.086.12V33.8l.017-.034v-.017l.086-.12.12-.154.086.549.051-.069-.068-.171-.034-.189-.034-.188v-.171l.069-.051.051-.051.188.566.017-.034-.034-.189-.034-.188v-.171l.017-.171.086-.086.086-.086.1.583.034-.034-.051-.206-.017-.223v-.188l.017-.189.086-.017.069-.034.1.583v-.017l-.034-.223-.034-.223V32.26l.017-.086.086-.034.086-.017.1.634.034-.051-.034-.223-.017-.223v-.206l.017-.189.086-.034L28.9,31.8l.086.634.034-.017-.034-.223-.034-.24v-.24l.034-.206.069-.017.086-.034.1.686.017-.017-.034-.223-.034-.257V31.4l.017-.1.017-.1.068-.017.086-.034.12.72.034-.051-.034-.223-.017-.24-.017-.1v-.12l.017-.1.017-.1.086-.034.069-.017.12.72.017-.017-.051-.223-.017-.24-.017-.12v-.1l.017-.12.017-.086.086-.034.086-.017.1.72.034-.034L30,31.077l-.034-.274v-.394l.034-.12.086-.034.086-.017.12.857.034-.034-.034-.257-.034-.274-.017-.137v-.257l.034-.12.086-.034.086-.034.137.891.068-.051-.051-.24-.034-.274-.017-.137v-.12l.017-.137.017-.1.086-.034.086-.034.137.891.069-.051-.051-.257-.034-.274-.017-.137V29.74l.017-.137.017-.1.086-.034.086-.034.137.908.034-.017-.034-.257-.051-.274v-.428l.017-.12.086-.017.1-.034.137.943.017-.017-.034-.257-.034-.274-.017-.154v-.274l.034-.12L31.54,29l.086-.017.137.96.017-.017v-.257l.017-.291v-.154l.034-.137.017-.137.051-.12h.086l.1-.017-.017.926h.017l.034-.257.051-.274.034-.154.051-.12.051-.137.051-.1h.189l-.171.857.068-.051.051-.24L32.551,29l.034-.137.034-.12.051-.1.051-.1h.171l-.154.788.034-.017.034-.206.034-.223.034-.12.034-.12.051-.086.051-.086h.137l-.137.7.051-.034.034-.017.034-.206.034-.223.034-.12.034-.12.034-.086.051-.086h.154l-.137.7.051-.017.017-.188.051-.206.069-.206.068-.154h.154l-.12.617.017-.017.034-.189.051-.223.034-.12.034-.1.051-.1.051-.086h.171l-.154.686.034-.034.034-.171.034-.188.034-.086.034-.086.051-.086.051-.068h.154l-.154.566.12-.051.034-.034.051-.171.034-.171.034-.171.051-.154.034.034.051.034-.034.5.034-.017.051-.154.051-.154.051-.154.068-.12h.154l-.034.223-.068.24.1-.051.034-.137.034-.154.051-.154.051-.1h.137l-.034.206-.069.24.069-.034.034-.051.017-.069.017-.1.017-.069.017-.069.051-.086.051-.1H35.6l-.017.188-.051.223.12-.051.034-.137.051-.154.051-.137.068-.1h.12l-.017.189-.051.206.137-.069.051-.154.051-.171h.206l-.017.069-.017.086.068-.034.051-.017.017.034-.069.051.257.171-.051.069-.308-.189-.069.034.12.1.1.086-.069.051-.274-.154-.068.034.137.086.086.086-.051.069-.291-.171-.069.034.12.086.1.086L36,28.026l-.291-.171-.034.017.154.1.12.12-.086.086-.36-.223-.051.034.1.051.069.069.068.051.051.068-.069.069-.394-.223-.051.034.171.154.189.137-.086.1-.48-.291-.1.051.154.086.137.086.1.1.1.086-.1.12-.583-.377-.051.034.137.086.1.086.1.1.086.086-.12.12-.566-.343-.034.017.154.12.137.12.12.12.154.12-.171.051-.668-.377h0l-.017.017.154.1.12.1.12.12.154.137-.171.034-.446-.24.171.154.206.188-.171.034L33.6,29.02l-.051.034.171.086.12.1.137.1.171.12-.154.086-.7-.36v.017l.188.12.154.12.171.12.189.154-.189.1L33,29.38l-.069.051.206.1.154.12.154.137.206.137-.189.12-.788-.463-.034.034.206.12.188.12L33.2,30l.206.154-.206.1-.874-.429h0l.206.12.154.12.171.137.206.154-.206.1-.823-.429-.017.017.257.137.206.154.206.154.257.171-.24.12-.754-.394.154.1.137.1.154.12.171.12-.206.12-.48-.24.189.12.24.137-.206.12-.411-.171.188.12.206.137-.206.137-.96-.411-.017.017.24.1.206.12.188.137.24.137-.206.137-.943-.394h0l.24.1.188.12.206.137.24.137L31.3,31.8l-.926-.394-.034.034.24.086.206.1.206.12.24.137-.206.12-.96-.308-.051.051.257.069.206.068.223.069.257.1-.189.154-.737-.154.12.034.12.051.12.068.154.069-.154.171-.84-.223-.051.051.274.069.223.068.24.1.257.1-.189.154-.96-.206.206.051.154.069.171.086.223.1-.171.154-.874-.206.223.069.171.069.189.086.223.1-.171.154L28.8,33.1l-.034.034.223.069.188.068.171.086.223.1-.154.171-.857-.206H28.54l.223.069.154.051.171.069.206.12-.171.137-.411-.086.137.069.171.1-.137.137-.686-.171.017-.034-.034.069.189.051.137.051.137.068.171.1-.137.154-.668-.171-.017.017.188.051.137.051.154.069.171.1-.154.154-.669-.171-.068.12-.086.137.154.24.137.257-.154.017h-.171l-.069-.1-.069-.12-.068.12-.051.12h-.189l-.171-.017L27.169,35l.154-.257-.068-.137-.086-.12-.669.171-.137-.154.171-.1.137-.069.137-.051L27,34.231v-.017l-.668.171-.154-.154.189-.1.137-.068.137-.051.188-.051-.051-.069.034.034-.686.171-.154-.137.189-.1.137-.069-.411.086-.171-.137.206-.12.154-.069.171-.051.206-.069h-.017l-.857.206-.154-.171.223-.1.189-.086L26,33.2l.223-.069-.034-.034-.891.206-.154-.154.223-.1.171-.086.171-.069.223-.069-.874.206-.154-.154.206-.1.171-.086.171-.069.206-.051-.977.206-.189-.154.274-.1.223-.1.223-.068.274-.069-.051-.051-.823.223-.171-.171.154-.069.137-.068.12-.051.12-.034-.754.154-.189-.154.274-.1.206-.069.223-.068.257-.069-.051-.051-.96.308-.206-.12.24-.137.206-.12.206-.1.24-.086-.034-.034-.926.394L23.5,31.66l.223-.137.206-.137.206-.12.223-.1h0l-.943.394-.206-.137.24-.137.206-.137.206-.12.223-.1-.017-.017-.96.411L22.9,31.18l.223-.137.188-.12-.411.171-.206-.12.223-.137.188-.12-.463.24-.223-.12.188-.12.137-.12.154-.1.137-.1-.754.394-.223-.12.24-.171.206-.154.223-.154.24-.137v-.017l-.84.429-.189-.1.206-.154.154-.137.171-.12.189-.12h0l-.874.429-.206-.1L21.8,30l.171-.137.171-.12.206-.12-.034-.034-.788.463-.171-.12.188-.137.171-.137.154-.12.189-.1-.069-.051-.806.446-.189-.1.206-.154.154-.12.154-.12.206-.12-.017-.017-.686.36-.154-.086.171-.12.12-.1.137-.1.171-.086-.051-.034-.651.343-.154-.034.206-.188.171-.154-.463.24-.154-.034.137-.137.12-.12.12-.1.154-.1-.017-.017H20.9l-.686.377-.171-.051.171-.12.12-.12.12-.12.171-.12-.051-.017L20,28.883l-.1-.12.086-.086.086-.1.12-.086.137-.086-.051-.017-.548.326-.12-.12.086-.086.086-.086.12-.086.12-.086-.034-.034-.48.291-.1-.1.086-.069.069-.069.086-.086.12-.068-.086-.051-.394.24-.068-.086.12-.12.171-.12-.034-.017-.36.206-.069-.069.1-.12.154-.12h-.017l-.291.171-.051-.068.086-.086.137-.086-.086-.051-.291.171-.051-.051.086-.1.12-.086-.051-.034-.274.171-.051-.051.068-.086.1-.069-.171-.154.051.017.069.017Zm10.3,9.925L31.043,41.4l-.189.326-2.108-4.217.12-.051.12-.051Zm13.8-11.382.326.771.309.669.137.274.154.257.086.1.086.1.086.1.1.086.086.069.1.069.12.051.12.051.12.034.12.034.137.017.154.017.154-.017h.171l.171-.034.206-.034.411-.086.463-.154-.223-.137-.257-.12-.274-.12-.291-.12-.326-.12-.326-.154-.343-.154-.343-.189-.188-.12-.171-.12-.171-.12-.171-.154-.188-.154-.171-.171-.171-.189-.171-.206h0l-.017-.017-.017-.017Zm6.668,18.461-.668.583-.6.5-.257.189-.274.171-.12.068-.12.051-.137.051-.12.034-.137.034-.12.017h-.257l-.137-.017-.137-.034-.137-.051-.137-.051-.154-.068-.154-.086-.154-.1-.154-.12-.343-.274-.377-.343.24-.017.24.017.274.017.257.034h0l.36.034.377.017.394.017.428-.017.223-.034.24-.034.24-.051.24-.069.274-.069.257-.1.291-.1.274-.137.017-.034h.034l.034-.017Zm-4.748.5-.034-.034.274-.206.257-.189.24-.154.223-.12.223-.12.206-.086L46.281,44l.171-.069.171-.034.171-.017.137-.017h.291l.12.034.12.017.12.034.446.206.411.206.206.086.24.051.1.017h.257l.137-.017-.274.12-.274.12-.257.086-.257.086-.24.051-.24.051-.223.034-.223.017-.411.017H46.59l-.377-.034-.343-.034h0l-.309-.034-.291-.017h-.291l-.274.017Zm5.468-4.748-.463.737-.411.617-.206.274-.188.223-.1.1-.1.1-.1.069-.1.086-.12.051-.12.051-.12.051-.12.017-.137.034H47.6l-.154-.017-.154-.034-.171-.034-.171-.051-.189-.069-.411-.154-.446-.223.154-.034L46.23,42l.171-.034.171-.034.377-.068.411-.086.411-.1.446-.154.223-.1.223-.1.24-.12.24-.137.24-.171.24-.171.24-.206.257-.223v-.034l.017-.017h.034Zm-4.337,1.783.188-.274.189-.223.189-.223.171-.189.171-.171.171-.137.154-.12.154-.1.137-.086.154-.068.137-.051.12-.051.137-.017.137-.017.12-.017h.12l.463.051.446.086.223.017.223-.017.12-.017.12-.034.12-.034.12-.069-.24.223-.24.188-.24.171-.24.154-.223.137-.24.12-.223.1-.223.1-.429.137-.411.12-.394.069-.377.068-.206.051-.206.034-.206.034-.188.051Zm5.108-5.434-.017.051-.017.017-.394.771-.343.651L50,38.345l-.188.257-.086.1-.1.1-.086.086-.1.086-.1.068-.12.051-.12.051-.12.051-.12.034-.137.017h-.463l-.171-.034-.188-.034-.189-.051-.428-.12-.463-.171.12-.051.137-.034.12-.034.137-.051.411-.1.411-.137.446-.171.446-.206.24-.12L49.5,37.8l.24-.137.223-.171.24-.171.223-.206.24-.223.223-.24v-.034l.017-.017.034-.017Zm-4.217,2.211h0l.171-.274.154-.274.171-.223.154-.206.154-.188.154-.154.154-.154.137-.12.137-.086.154-.086.12-.069.137-.068.137-.034.12-.034.12-.017.12-.017.48.017.463.034h.223l.223-.034.12-.034.12-.034.12-.051.1-.069-.206.24-.223.206-.223.188L50,37.436l-.24.154-.223.137-.223.137-.223.12-.446.189-.428.171-.429.12-.394.12-.171.051-.171.051-.171.051-.154.051Zm4.508-6.239-.308.891-.274.754-.137.326-.154.291-.086.12-.086.137-.086.1-.1.1-.1.086-.1.086-.12.086-.12.051-.137.051-.137.051-.154.034-.154.017h-.566l-.206-.017-.463-.086-.531-.12.154-.069.154-.068.154-.086.171-.069.394-.189.411-.188.429-.24.446-.274.206-.154.223-.171.223-.171.206-.206.223-.223.206-.24.206-.257.189-.274V32.6l-.189.257-.206.257-.206.223-.206.223-.206.189-.206.189-.223.154-.206.154-.428.274-.428.223-.411.189-.394.188-.206.086-.206.1-.189.086-.171.1H47.1l.137-.343.154-.308.137-.257.137-.257.137-.206.137-.206.137-.154.137-.154.137-.12.137-.12.137-.086.137-.069.137-.069.12-.034.137-.051.12-.017L49.8,33l.5-.034.24-.034.24-.086.12-.051.12-.069.1-.069.12-.1Zm-.086-3.463-.291.84-.274.72-.137.309-.137.274-.086.137-.069.1-.1.12-.086.086-.1.086-.1.086-.1.068-.12.051-.12.051-.137.034-.154.034-.154.017-.171.017H48.63l-.189-.017-.206-.017L47.79,32l-.514-.12.154-.068.171-.086.188-.086.189-.086.36-.171.394-.188.394-.223.411-.257.206-.137.206-.171.189-.171.206-.188.206-.189.188-.223.189-.24.188-.257v-.017l.017-.017.017-.017Zm-3.908,2.76.137-.309.137-.274.12-.257.137-.223.12-.206.137-.171.12-.154.137-.137.12-.12.12-.1.12-.086.12-.069.137-.068.12-.034.12-.051.12-.017.463-.051.463-.034.223-.034.223-.051.1-.034.1-.051.12-.069.1-.086-.171.24-.189.223-.188.206-.189.189-.188.189-.206.154-.189.154-.206.137-.394.24-.394.223-.377.188-.343.154-.223.1-.206.086-.189.1-.171.1Zm3.445-6.291-.274.806-.257.686-.12.291L49.9,27.6l-.086.12-.069.1-.086.1-.086.086-.086.086-.1.069-.1.068-.12.051-.12.051-.12.034-.137.034-.154.017h-.514l-.188-.034-.429-.068-.48-.12.24-.154.257-.154.274-.137.291-.12.309-.137.326-.154.308-.171.326-.206.171-.12.171-.137.154-.137.171-.154.154-.171.154-.189.171-.206.154-.206-.017-.034.034-.034.017-.017Zm-3.7,2.623.137-.291.12-.257.12-.24.137-.223.12-.189.12-.171.12-.154.12-.12.12-.12.12-.1.12-.069.12-.069.12-.068.1-.034.12-.034.12-.034.446-.051.428-.017.223-.034.206-.051.1-.051.1-.051.1-.069.1-.069-.137.206L50.344,26l-.154.189-.171.154-.154.154-.154.137-.154.12-.171.12-.326.206-.308.171-.309.137-.308.137-.309.154-.308.137-.137.086-.137.086-.12.086-.137.1Zm3.342-6.342-.017.017v.017l-.257.754-.24.651-.12.274-.137.257-.137.223-.154.189-.068.086-.1.068-.086.069-.1.069-.1.051-.12.034-.12.034-.12.034-.137.017-.154.017H48l-.171-.017-.36-.034-.411-.069-.188-.051-.206-.051.24-.171.257-.171L47.447,24l.309-.154.308-.137.326-.171.309-.171.326-.206.171-.12.154-.137.171-.137.154-.154.154-.154.154-.171.154-.206.137-.206h0l.017-.017h.017l.017-.017Zm-3.7,2.623.12-.291.137-.257.12-.24.12-.223.12-.189.12-.171.12-.137.12-.137.12-.12.12-.086.1-.086.12-.068.12-.051.12-.051.1-.034.12-.034.446-.051.429-.017.206-.034.206-.051.1-.034.1-.051.1-.051.1-.068-.137.188-.154.171-.137.154-.154.154-.309.274-.309.223-.308.206-.309.171-.308.154-.291.137-.326.154-.326.171-.137.086-.137.086-.137.1-.12.1ZM40.265,41.979l.257.771.24.651.12.291.137.24.069.12.069.1.086.086.086.1.086.069.1.069.086.068.12.051.12.051.12.034.137.017.137.017.154.017h.154l.189-.017.189-.017.411-.069.463-.12-.017-.017-.017-.034-.1-.137-.12-.12-.137-.086-.154-.086-.309-.154-.343-.12-.257-.1-.274-.1-.274-.137-.291-.171-.154-.1-.154-.12-.137-.12-.154-.137-.154-.171-.137-.171-.154-.189-.154-.223h0L40.282,42l-.017-.017Zm3.462,2.4-.12-.274-.1-.24-.12-.206-.12-.189-.1-.171-.12-.154-.12-.137-.1-.12-.1-.1L42.6,42.7l-.1-.068-.12-.069-.206-.086-.223-.051-.411-.051-.411-.034-.189-.017-.206-.051-.086-.051-.1-.034-.086-.069-.1-.069.137.206.137.171.154.154.137.154.137.137.154.1.137.12.137.086.274.154.274.137.274.1.257.1.326.12.308.137.154.086.137.1.12.12.12.137Zm-2.16-4.9.308.754.291.617.137.274.154.24.154.206.171.171.086.069.1.068.1.051.1.051.12.034.12.034.137.017h.291L44,42.047l.171-.017L44.344,42l.394-.086.446-.137-.137-.086-.189-.086-.206-.068-.223-.086-.308-.12-.309-.12-.343-.154-.36-.206-.188-.1-.189-.137-.189-.137-.188-.154-.189-.171-.188-.189-.189-.223L41.6,39.51h0l-.017-.017-.017-.017Zm3.651,2.28.051-.017-.189.5-.188.48-.206.48-.223.48-.24.463-.257.463-.257.463-.274.446-.291.446-.308.446-.326.446-.343.429-.343.411-.377.411-.377.411-.411.411.206.034.206.051.206.034.206.034.617-.686.583-.7.531-.72.48-.72.463-.72.411-.737.377-.754.343-.754.309-.771.274-.789.24-.788.223-.806.188-.806.154-.84.12-.84.1-.857.086-.874.051-.874.034-.908.017-.908v-.943l-.017-.943-.051-.977-.051-.977L46.9,28.369l-.086-1.011-.086-1.046-.1-1.063-.24-2.177-.274-2.263-.051-.394-.1-.668-.12-.686L45.75,18.6l-.034-.171-.034-.154-.034-.12-.034-.086.257-.36.223-.326.086-.137.086-.154.069-.137.051-.137.034-.12.034-.12.017-.12v-.24l-.017-.1-.017-.12-.034-.1-.1-.206-.12-.206-.171-.223-.189-.206-.48-.446-.566-.514.326.514.223.446.1.189.068.188.051.171.051.154.034.154.017.154.017.154v.154l-.017.309-.017.343-.017.206-.017.223-.017.24-.017.274-.017-.034-.017-.034v-.24l.017-.24.017-.206.017-.189.034-.36V16.2l-.017-.154-.017-.154-.034-.154-.051-.171-.068-.189-.069-.189-.1-.188L45,14.536l-.343-.548-.034-.034.034.137.034.1.017.12v.1l-.034.206-.051.206-.154.394-.137.411-.017.1-.017.12-.017.1v.12l.017.137.017.137.034.137.051.137.068.154.086.171.1.171.12.171.137.188.171.206.189.206.206.223.017.1.171,1.268.171,1.268.154,1.268.154,1.268.154,1.268.12,1.251.12,1.251.086,1.251-.137-.274-.137-.24-.137-.223-.137-.206-.137-.171-.137-.154-.12-.137-.137-.12-.12-.1L45.3,26.6l-.12-.069-.12-.069-.24-.086-.223-.034-.446-.017h-.429l-.206-.017-.206-.034-.12-.034-.1-.034-.1-.051-.1-.069.154.189.171.171.171.154.154.154.171.137.171.12.171.1.154.1.343.188.326.154.326.137.309.12.308.12.291.12.274.154.24.154.051.891.051.874.017.874v1.748l-.017.857-.051.857-.068.84-.069.84-.12.823-.12.823-.154.806-.171.806-.206.788-.24.771-.257.771-.137-.257L45,41.225l-.137-.206-.12-.206-.137-.171-.12-.154-.137-.137-.12-.12-.12-.1-.12-.086-.12-.068-.1-.051-.24-.086-.206-.034-.428-.034-.411.017-.206-.017-.206-.034-.1-.034-.1-.034-.1-.051-.1-.069.188.223.171.188.188.171.171.171.189.137.188.137.171.12.171.1.343.188.343.154.308.12.291.1.257.086.223.1.189.1.171.1ZM24.392,52.915l-.257.206-.24.206-.24.206-.223.223-.223.24L23,54.252l-.189.257-.188.291-.171.291L22.3,55.4l-.137.326-.137.343-.12.36-.1.36-.086.394-.069.429.137.017.154.069.154.086.171.1.171.12.154.086.086.034.069.034.086.017h.051l.12-.549.12-.514.12-.5.137-.446.154-.429.154-.394.171-.36.171-.343.189-.309.206-.291.206-.257.206-.24.24-.223.223-.206.257-.188.24-.171-.343.034-.36.034-.343.051-.36.034Zm17.827-16.9.326.788.291.651.154.291.154.24.086.12.086.1.086.086.086.086.1.086.1.069.1.051.12.051.12.034.137.034.137.017h.308l.171-.017.171-.017.189-.034.411-.1.48-.137-.1-.154-.1-.12-.137-.1-.154-.1-.326-.154-.394-.12-.257-.1-.274-.1L44,37.333,43.71,37.2l-.309-.189-.291-.223-.154-.12-.154-.137-.137-.154L42.51,36.2l-.154-.086-.137-.1ZM46.076,38.4h.017l-.137-.274-.137-.24-.12-.206-.137-.206-.12-.171-.12-.154-.12-.137-.12-.12-.12-.12-.12-.086-.12-.086-.1-.068-.223-.1-.223-.051-.206-.034-.206-.017h-.806l-.206-.034-.188-.069.137.154.137.137.154.137.137.1.291.206.274.171.291.137.274.12.257.086.257.086.206.086.206.069.188.068.189.1.154.086.137.12.12.137.1.171Zm-3.463-5.571.326.771.309.669.154.274.154.257.069.12.086.1.1.086.086.086.1.069.1.068.1.069.12.034.12.034.137.034.137.017h.308L45.2,35.5l.189-.017.188-.034.429-.1.463-.154-.1-.12-.12-.1-.12-.086-.154-.086-.326-.137-.36-.1L45,34.471l-.291-.1-.308-.137-.326-.154-.154-.086-.154-.1-.171-.12-.154-.137-.171-.137-.154-.154-.171-.189-.154-.188v-.017l-.086-.068-.086-.051Zm3.822,2.246-.137-.257-.137-.24-.137-.206-.137-.206-.12-.154-.137-.154-.12-.137-.12-.12-.12-.1-.12-.086-.12-.069-.12-.051-.223-.086-.223-.051-.428-.034-.411.017-.206-.017-.206-.017-.1-.017-.1-.034L42.9,33l-.1-.051.154.189.154.171.154.137.154.137.171.12.154.12.154.1.154.086.309.154.291.12.308.086.274.086.36.12.308.12.154.086.137.086.12.086.12.12ZM42.819,29.38l.326.789.309.651.154.291.154.24.069.12.086.1.1.086.086.086.1.086.1.069.1.051.12.051.12.034.137.034.137.017h.308l.171-.017.189-.017.188-.034.411-.1.48-.154-.223-.137-.24-.1-.274-.12-.291-.1-.326-.12-.343-.137-.343-.154-.36-.188-.171-.1-.189-.12-.171-.137-.189-.154-.171-.154-.171-.171-.189-.206-.171-.206.017-.034.154.206.171.189.171.171.171.154.171.137.188.12.171.12.171.1.36.188.343.154.326.137.326.12.308.12.274.1.257.137.24.137-.154-.274-.137-.257-.137-.24-.154-.206-.137-.171-.137-.171-.12-.137-.137-.12-.12-.1-.137-.086-.12-.068-.12-.051-.12-.051-.12-.034-.12-.017-.12-.017-.463-.017h-.429l-.223-.017-.223-.051-.1-.034-.1-.051-.12-.068-.1-.086Zm-.463-7.234.326.788.308.669.137.274.171.257.069.1.086.1.1.1.086.086.1.069.1.069.1.051.12.051.12.034.137.034.154.017h.308l.171-.017.171-.034.188-.034.429-.1.48-.154-.017-.017-.171-.086-.206-.086-.223-.086-.24-.086-.326-.137-.36-.137-.36-.171-.377-.189-.189-.12-.188-.12-.189-.137-.189-.154-.188-.171-.189-.171-.171-.206-.189-.206-.051-.034-.051-.051Zm3.822,2.263-.137-.257-.137-.24-.137-.206L45.63,23.5l-.12-.171-.137-.154-.12-.12-.12-.12-.12-.1-.12-.086-.12-.069-.12-.069-.24-.086-.223-.051-.429-.017h-.617l-.206-.034-.1-.017-.1-.034-.1-.051-.1-.051.171.206.171.171.171.171.188.154.171.137.189.12.171.12.189.1.36.188.36.154.326.137.326.12.24.1.223.086.206.086.189.086Zm-4.337-5.622.343.771.291.668.154.274.154.257.086.1.086.1.086.1.086.086.1.068.1.069.1.051.12.051.12.051.137.017.137.017.137.017h.171l.154-.017.189-.017.188-.034.411-.1.463-.154.068-.017-.017-.034-.017-.034-.274-.171-.309-.171-.343-.189-.377-.206-.6-.308-.617-.343-.309-.188-.326-.189-.308-.223-.326-.223h0l-.034-.068h-.017l-.017-.017Zm3.805,2.228-.12-.257-.137-.223-.12-.206-.137-.171-.12-.171-.12-.137-.12-.137-.12-.12-.1-.1-.12-.086-.12-.068-.1-.051-.223-.1-.206-.051-.206-.034h-.806l-.189-.017-.206-.034-.188-.051-.086-.051-.086-.034.291.189.308.206.291.171.291.188.6.309.548.291.377.206.343.189.308.171.274.188Zm3.925-2.52-.034.137-.017-.034-.017-.034.034-.034.034-.034Zm-.051.223-.223.7-.206.6-.1.257-.12.223-.12.206-.154.171-.069.069-.086.068-.1.069-.086.051-.1.051-.12.034-.12.034-.12.017-.274.017-.326-.017-.36-.034-.394-.086-.086-.017-.086-.017.154-.137.154-.12.137-.1.154-.086.308-.154.309-.12.24-.1.24-.1.24-.12.257-.171.137-.086.12-.12.137-.12.12-.137.137-.154.137-.171.137-.189.137-.206Zm-3.24,2.228.1-.257.12-.24.1-.206.1-.206.1-.171.1-.154.1-.137.1-.1.1-.12.12-.086.1-.069.1-.069.206-.086.188-.068.411-.051.377-.034.206-.034.171-.051.1-.051.086-.034.1-.068.086-.069-.137.223-.137.188-.137.171-.137.154-.12.137-.137.12-.12.12-.137.086-.24.171-.257.12-.24.12-.24.086-.291.12-.291.137-.154.086-.137.086-.137.12-.154.12ZM30.272,52.812l.274.188.257.206.257.206.24.24.223.24.223.274.206.291.189.309.188.326.171.36.154.377.137.411.137.446.12.463.1.5.1.531.137-.017.137-.051.154-.069.137-.086.154-.086.154-.086.137-.051.137-.017-.086-.446-.1-.411-.1-.394-.12-.377-.137-.36L33.7,55.4l-.154-.309-.171-.291-.189-.274-.206-.257-.206-.257-.206-.223-.24-.223-.223-.206-.257-.188-.257-.189-.326-.051-.326-.051-.343-.034-.326-.034ZM8.365,24.358H8.3l-.068.051-.051.069-.051.069-.017.086v.12l-.017.034-.034.034-.017.034-.034.017H7.9L7.765,24.8l-.137-.051-.154-.017-.137-.017L7.251,24.7l-.086-.034L7.1,24.615l-.086-.051-.086-.257-.069-.257-.051-.12-.069-.086-.086-.086-.1-.051-.206-.069-.206-.051-.206-.034-.206-.017-.069-.017L5.605,23.5l-.069-.034-.051-.034-.069-.086-.051-.1-.034-.1-.017-.154-.034-.171-.017-.171-.051-.274-.069-.274-.086-.257-.137-.257-.034-.12v-.068l.017-.034.034-.017h.017l.034.017.257.1.24.12.223.12.206.12.189.137.188.137.171.137.154.137.309.291.257.291.24.291.24.291.171.206.154.206.171.206.189.189.017.017Zm.428-3.617-.051.051-.051.051-.034.069-.034.069-.017.068-.034.086-.017.034-.034.017-.034.017H8.451l-.137-.034-.137-.034L8.039,21.1l-.12-.034-.154-.051-.137-.1-.086-.069-.034-.12-.034-.12.017-.154-.051-.12-.051-.086L7.3,20.175l-.1-.034-.189-.034-.189-.034-.188-.034-.189-.051-.12-.051-.086-.069L6.154,19.8,6.1,19.712l-.051-.12-.017-.12-.017-.154v-.154l-.051-.24L5.9,18.667l-.086-.24-.1-.24-.034-.1V18l.017-.017.017-.017H5.76l.223.12.206.1.206.1.171.12.343.24.291.257.257.257.24.274.223.257.206.274.171.189.189.223.171.206.137.154Z" transform="translate(39 -29)" fill="#00923f" fill-rule="evenodd"/>
    <path id="_22449712" d="M22.695,53.258l-.069-.017-.069-.017-.069-.051-.051-.051-.051-.051L22.352,53l-.017-.086v-.137l.017-.069.034-.069.034-.052.051-.034.069-.034.051-.017h.069l2.708-.291h.086l.069-.034.052-.034.051-.051.051-.051.034-.069.017-.068.017-.069-.017-.069-.017-.068-.034-.069-.034-.051-.068-.034-.052-.034-.069-.017-.069-.017h-.1l-3.565.206.549,1.389.051.069.051.051.051.034.051.017.12.017Z" transform="translate(39 -29)" fill="#1f1a17" fill-rule="evenodd"/>
    <path id="_72718016" d="M11.776,54.783l.034-.086.034-.069.017-.069v-.137l-.017-.051-.034-.051-.017-.051-.051-.051-.034-.034-.051-.017-.069-.034h-.051l-.051-.017-.069.017-.051.017L7.919,55.3l-.051.034H7.782L7.714,55.3l-.051-.034-.051-.034-.051-.051-.034-.051-.017-.069-.017-.069.017-.069.017-.051.017-.051.034-.051.051-.051.034-.034.051-.017.051-.017L11.5,53.481l.36.754.034.1v.223l-.017.069-.034.051-.034.051Z" transform="translate(39 -29)" fill="#1f1a17" fill-rule="evenodd"/>
    <path id="_79621488" d="M44.019,54.818l-.051-.086-.034-.069-.017-.069v-.137l.017-.051.034-.051L44,54.3l.034-.051.051-.034.051-.017.052-.034h.051l.051-.017.069.017.051.017,3.445,1.149.051.034h.034L48,55.349l.069-.017.051-.034.052-.034.051-.052.034-.051.017-.069.017-.069-.017-.069-.017-.051-.017-.051L48.2,54.8l-.034-.051-.052-.034-.051-.017-.051-.017-3.737-1.166-.36.754-.034.1v.223l.017.069.034.051.034.051Z" transform="translate(39 -29)" fill="#1f1a17" fill-rule="evenodd"/>
    <path id="_75233336" d="M33.031,53.258l.069-.017.069-.017.069-.051.051-.051.051-.051L33.374,53l.017-.086.017-.069-.017-.069-.017-.069-.034-.069-.034-.052-.051-.034-.051-.034-.069-.017h-.051l-2.726-.291h-.068l-.069-.034-.069-.034-.051-.051-.051-.051-.034-.069L30,51.9v-.137l.017-.068.034-.069.051-.051.051-.034.052-.034.069-.017.086-.017h.086l3.565.206-.549,1.389-.051.069-.051.051-.051.034-.051.017-.12.017Z" transform="translate(39 -29)" fill="#1f1a17" fill-rule="evenodd"/>
  </g>
</svg>
